<svg width="43" height="28" viewBox="0 0 43 28" fill="none" xmlns="http://www.w3.org/2000/svg">
<path d="M43 21C43 24.8659 40.7338 28 36.2812 28H6.71875C2.26623 28 0 24.8659 0 21V7C0 3.13409 2.26623 0 6.71875 0H36.2812C40.7338 0 43 3.13409 43 7V21Z" fill="#128807"/>
<path d="M38 14.5L21.5003 26L5 14.5L21.5003 3L38 14.5Z" fill="#F9CB38"/>
<path fill-rule="evenodd" clip-rule="evenodd" d="M28.0067 16.4488C27.248 18.9096 24.874 20.783 22.186 21.0376C18.5947 21.3806 15.4527 19.2017 14.6887 15.8334C14.4626 14.8436 14.4914 13.8162 14.7727 12.8393C14.8773 12.7311 15.022 12.705 15.166 12.686C16.2164 12.5467 17.2782 12.5026 18.3373 12.5542C19.4673 12.6153 20.588 12.7649 21.6773 13.0589C22.7953 13.3611 23.878 13.7557 24.9 14.28C25.6691 14.6701 26.4037 15.1191 27.0967 15.6228C27.3313 15.7965 27.5707 15.967 27.796 16.1522C27.8967 16.235 27.976 16.324 28.0067 16.4488Z" fill="#002776"/>
<path fill-rule="evenodd" clip-rule="evenodd" d="M15.1494 11.8434C16.01 10.0075 17.4614 8.78503 19.4674 8.21103C23.5074 7.05475 27.652 9.60339 28.2527 13.5781C28.346 14.1922 28.35 14.8082 28.2514 15.4236C28.1494 15.4598 28.0734 15.4083 28.0034 15.3529C27.2712 14.7818 26.49 14.2705 25.668 13.8244C25.0351 13.4815 24.3775 13.1821 23.7 12.9284C23.58 12.8832 23.4294 12.8597 23.388 12.7063C23.4314 12.6325 23.486 12.5682 23.5514 12.5084C23.5747 12.4855 23.6087 12.4632 23.5774 12.425C23.5667 12.4129 23.5447 12.4129 23.526 12.4148C23.476 12.4199 23.4827 12.453 23.4847 12.488C23.4887 12.6019 23.4194 12.6751 23.328 12.7337C23.166 12.7687 23.0107 12.7222 22.8794 12.6554C22.5034 12.467 22.0874 12.4028 21.6894 12.2978C21.0687 12.1368 20.4314 12.0458 19.7954 11.9509C19.2878 11.8736 18.7768 11.8179 18.264 11.7842C17.7974 11.753 17.322 11.7575 16.852 11.788C16.3394 11.8224 15.8254 11.8568 15.3154 11.9153C15.2834 11.9198 15.2507 11.9153 15.2213 11.9026C15.1919 11.8898 15.1669 11.8693 15.1494 11.8434Z" fill="#002776"/>
<path fill-rule="evenodd" clip-rule="evenodd" d="M23.3934 12.6668C23.3907 12.7445 23.4634 12.7343 23.5074 12.7508C25.2289 13.3901 26.8299 14.2928 28.2474 15.4236C28.2065 15.7727 28.1255 16.1165 28.006 16.4488C27.172 15.7882 26.318 15.1588 25.3734 14.6447C22.3874 13.0213 19.19 12.3779 15.772 12.7228C15.4387 12.7553 15.1054 12.7986 14.772 12.8374C14.858 12.4931 14.9674 12.1552 15.1467 11.8421C17.642 11.5208 20.094 11.7034 22.5 12.4142C22.7987 12.5027 23.0834 12.6452 23.402 12.6719L23.3934 12.6649" fill="#FEFEFE"/>
<path fill-rule="evenodd" clip-rule="evenodd" d="M26.5 16.7682C26.2993 16.7479 26.5173 16.9827 26.3147 16.9776C26.138 16.975 26.1287 16.8401 26.042 16.765C26.1087 16.6989 26.2267 16.6855 26.264 16.5824C26.2893 16.6912 26.3967 16.7141 26.5 16.7682Z" fill="#D9DFEA"/>
<path fill-rule="evenodd" clip-rule="evenodd" d="M18.9293 17.9455C18.7407 17.9665 18.8987 18.1625 18.7407 18.1657C18.5813 18.1688 18.4993 18.0562 18.4673 17.9397C18.456 17.9067 18.6093 17.8328 18.6847 17.7781C18.694 17.8933 18.8193 17.8882 18.9293 17.9455Z" fill="#E9ECF3"/>
<path fill-rule="evenodd" clip-rule="evenodd" d="M21.4267 17.591C21.1647 17.7526 21.376 17.3874 21.222 17.423C21.272 17.3466 21.4133 17.3645 21.4227 17.2474C21.4893 17.3136 21.546 17.3899 21.652 17.4039C21.5007 17.3842 21.6653 17.7049 21.4267 17.591Z" fill="#EDEFF5"/>
<path fill-rule="evenodd" clip-rule="evenodd" d="M16.0133 13.3032C15.9507 13.4171 15.9033 13.5444 15.7133 13.468C15.616 13.4292 15.72 13.3019 15.6033 13.2899L15.8193 13.1085C15.834 13.1384 15.8513 13.167 15.866 13.1969C15.8833 13.2727 16.0413 13.1721 16.0133 13.3032Z" fill="#F0F2F6"/>
<path fill-rule="evenodd" clip-rule="evenodd" d="M16.618 16.0682C16.5187 16.0981 16.59 16.3476 16.3767 16.2388C16.3553 16.2286 16.262 16.2776 16.2793 16.2489C16.3353 16.1446 16.21 16.0937 16.2293 16.0103C16.346 16.0587 16.3393 15.855 16.4587 15.9098C16.4673 15.9161 16.4673 15.9416 16.4733 15.9581C16.486 16.037 16.6473 15.9384 16.618 16.0682Z" fill="#ECEFF4"/>
<path fill-rule="evenodd" clip-rule="evenodd" d="M15.5693 16.8051C15.3646 16.8732 15.5173 16.6371 15.4 16.639C15.4546 16.5951 15.516 16.513 15.5706 16.5162C15.636 16.5194 15.696 16.5964 15.756 16.6403C15.6666 16.6689 15.7606 16.8999 15.5693 16.8051Z" fill="#D9DFEA"/>
<path fill-rule="evenodd" clip-rule="evenodd" d="M23.48 19.0572C23.2633 19.1514 23.474 18.8733 23.3293 18.9096C23.3147 18.8033 23.4953 18.8676 23.4727 18.7556L23.668 18.9051C23.5887 18.9395 23.668 19.1559 23.48 19.0572Z" fill="#D8DEEA"/>
<path fill-rule="evenodd" clip-rule="evenodd" d="M24.8666 18.9039C24.6873 18.9751 24.7973 18.7448 24.7006 18.7219C24.766 18.6818 24.8346 18.6391 24.8986 18.5978C24.904 18.6919 25.0393 18.6576 25.054 18.7409C24.9533 18.7467 25.058 18.9541 24.8666 18.9039ZM26.1133 18.0473C25.9093 18.1459 26.06 17.8869 25.9433 17.8978C25.9666 17.815 26.1006 17.8462 26.1086 17.7508L26.3 17.8876C26.1833 17.8844 26.3266 18.1574 26.1133 18.0473Z" fill="#DCE1EC"/>
<path fill-rule="evenodd" clip-rule="evenodd" d="M17.8553 16.8592C17.642 16.9744 17.7813 16.7167 17.6827 16.7116C17.6927 16.6168 17.8433 16.6575 17.85 16.5569C17.87 16.6499 17.9993 16.6231 18.0273 16.7065C17.9 16.6887 18.0813 16.9808 17.8553 16.8592Z" fill="#D4DAE7"/>
<path fill-rule="evenodd" clip-rule="evenodd" d="M18.72 14.9259C18.5994 14.9183 18.754 14.7369 18.606 14.7484C18.6314 14.6466 18.7454 14.6676 18.808 14.6147C18.84 14.679 18.9307 14.6937 18.9354 14.7859C18.946 14.9546 18.7894 14.8674 18.72 14.9259Z" fill="#F2F4F7"/>
<path fill-rule="evenodd" clip-rule="evenodd" d="M22.2333 16.2699C22.0487 16.3711 22.146 16.1452 22.0607 16.1204C22.1187 16.0746 22.1747 16.0281 22.2333 15.981C22.2373 16.0752 22.426 16.0542 22.3727 16.1267C22.3407 16.17 22.444 16.3679 22.2333 16.2699Z" fill="#E6E9F1"/>
<path fill-rule="evenodd" clip-rule="evenodd" d="M21.4067 15.7029C21.196 15.7233 21.4133 15.5407 21.2767 15.5451C21.33 15.4974 21.3813 15.4159 21.4413 15.4108C21.4933 15.4058 21.5533 15.4866 21.61 15.5311C21.536 15.5992 21.5473 15.7748 21.4067 15.7029Z" fill="#EAEDF3"/>
<path fill-rule="evenodd" clip-rule="evenodd" d="M26.5213 17.1882C26.5646 17.2977 26.65 17.3123 26.7166 17.3511C26.6486 17.4243 26.622 17.5363 26.4806 17.5363C26.336 17.5376 26.434 17.4326 26.4013 17.3836C26.3206 17.2614 26.6186 17.3645 26.5213 17.1882Z" fill="#E4E8F0"/>
<path fill-rule="evenodd" clip-rule="evenodd" d="M25.012 19.4053C24.9613 19.4772 24.996 19.5459 24.8613 19.5485C24.7073 19.551 24.7566 19.4435 24.75 19.4104C24.7373 19.3557 24.8253 19.3035 24.876 19.3143C24.92 19.3219 25.0053 19.3455 25.012 19.4053Z" fill="#CED5E4"/>
<path fill-rule="evenodd" clip-rule="evenodd" d="M17.8093 17.3664C17.6993 17.3785 17.7906 17.5159 17.6513 17.5115C17.524 17.5077 17.5426 17.4256 17.5286 17.3759C17.5066 17.3066 17.614 17.3085 17.638 17.2563C17.6887 17.29 17.74 17.3237 17.8093 17.3664Z" fill="#DAE0EB"/>
<path fill-rule="evenodd" clip-rule="evenodd" d="M24.7133 18.0931C24.7607 18.0594 24.808 18.0282 24.858 17.9964C24.862 18.067 25.0213 18.0263 24.968 18.1167C24.946 18.1529 25 18.2522 24.862 18.2433C24.738 18.235 24.7673 18.1523 24.7133 18.0931Z" fill="#D8DEE9"/>
<path fill-rule="evenodd" clip-rule="evenodd" d="M24.2067 18.3114C24.1827 18.4368 24.108 18.4571 24.026 18.4718C23.8867 18.494 23.9914 18.3941 23.9687 18.3559C23.91 18.2605 24.058 18.2789 24.0754 18.2166C24.114 18.2649 24.2027 18.2637 24.2067 18.3114Z" fill="#CBD2E3"/>
<path fill-rule="evenodd" clip-rule="evenodd" d="M23.4267 14.1846C23.38 14.2056 23.442 14.3119 23.342 14.2813C23.266 14.2565 23.1727 14.2221 23.1794 14.133C23.182 14.0987 23.2727 14.07 23.3234 14.0401C23.332 14.1044 23.476 14.0834 23.4267 14.1846Z" fill="#D1D8E6"/>
<path fill-rule="evenodd" clip-rule="evenodd" d="M27.1993 16.9757C27.074 17.0228 27.1307 16.9241 27.1087 16.8955C27.0247 16.7867 27.1907 16.8026 27.1993 16.7377C27.2507 16.7701 27.3507 16.807 27.3467 16.835C27.3438 16.8714 27.3273 16.9056 27.3003 16.9314C27.2733 16.9572 27.2375 16.9729 27.1993 16.9757Z" fill="#DADFEA"/>
<path fill-rule="evenodd" clip-rule="evenodd" d="M20.7533 16.0046C20.7533 16.0784 20.9093 16.0491 20.8567 16.1414C20.8353 16.1789 20.8807 16.2795 20.7727 16.2585C20.6907 16.2426 20.608 16.1968 20.6053 16.1191C20.6053 16.0829 20.7 16.044 20.7533 16.0046Z" fill="#CAD2E2"/>
<path fill-rule="evenodd" clip-rule="evenodd" d="M22.8866 18.3069C22.8253 18.2796 22.8226 18.2026 22.8266 18.1657C22.8333 18.1167 22.902 18.0505 22.9606 18.0772C22.9966 18.0938 23.0986 18.0842 23.074 18.1733C23.0513 18.2586 22.962 18.2707 22.8866 18.3069Z" fill="#D0D7E5"/>
<path fill-rule="evenodd" clip-rule="evenodd" d="M25.4667 18.1949C25.4693 18.1943 25.516 18.1326 25.5687 18.1313C25.6067 18.13 25.6453 18.2051 25.686 18.2471C25.6313 18.2618 25.678 18.3578 25.57 18.3566C25.4727 18.3547 25.4727 18.3127 25.4667 18.1949Z" fill="#EFF2F6"/>
<path fill-rule="evenodd" clip-rule="evenodd" d="M21.1774 16.5837C21.1594 16.6524 21.1594 16.695 21.0954 16.6938C21.03 16.6925 20.998 16.6696 20.9994 16.6059C20.9994 16.5557 21.034 16.5207 21.0734 16.5239C21.1187 16.527 21.1834 16.5391 21.1774 16.5837Z" fill="#CCD4E3"/>
<path fill-rule="evenodd" clip-rule="evenodd" d="M17.0894 15.5935C17.1214 15.6266 17.158 15.6527 17.172 15.6864C17.184 15.7144 17.1654 15.757 17.124 15.7615C17.078 15.7653 17.0287 15.764 17.014 15.7093C17.0007 15.6558 17.0494 15.6367 17.0894 15.5935Z" fill="#E0E5EE"/>
<path fill-rule="evenodd" clip-rule="evenodd" d="M16.618 16.0682C16.6 15.995 16.4813 16.0415 16.4733 15.9575C16.4987 16.0211 16.6967 15.8792 16.618 16.0682Z" fill="#7085B1"/>
<path fill-rule="evenodd" clip-rule="evenodd" d="M16.0134 13.3032C15.9987 13.2249 15.8727 13.2867 15.866 13.1969C15.9014 13.2504 16.08 13.1237 16.0134 13.3032Z" fill="#5C75A7"/>
<path fill-rule="evenodd" clip-rule="evenodd" d="M23.4067 12.6738C23.4193 12.6255 23.46 12.5466 23.444 12.5319C23.2267 12.3474 23.5167 12.3162 23.56 12.2787C23.6393 12.2055 23.6267 12.5141 23.836 12.3187C23.7233 12.5574 23.5727 12.6261 23.3993 12.6668L23.4067 12.6738Z" fill="#E7EAF2"/>
<path fill-rule="evenodd" clip-rule="evenodd" d="M16.9807 12.4759C16.7687 12.4562 16.9573 12.1927 16.9113 12.04C16.854 11.8427 17.0047 11.8453 17.1513 11.8446C17.3787 11.8434 17.5073 11.935 17.5073 12.1641C17.5067 12.3894 17.3973 12.4785 16.9807 12.4759Z" fill="#15A24A"/>
<path fill-rule="evenodd" clip-rule="evenodd" d="M25.0807 13.7474C25.034 13.8836 24.8613 13.9689 24.832 14.1369C24.8293 14.1591 24.7627 14.1547 24.75 14.0898C24.6967 13.7856 24.694 13.7862 24.4587 13.9491C24.44 13.9625 24.4073 13.9746 24.3893 13.9689C24.3547 13.9542 24.3407 13.9211 24.3613 13.8836C24.4393 13.7385 24.5127 13.5896 24.6 13.4489C24.6587 13.356 24.73 13.4337 24.7873 13.4604C24.9133 13.5196 25.0687 13.5533 25.0807 13.7474Z" fill="#13A248"/>
<path fill-rule="evenodd" clip-rule="evenodd" d="M25.6773 14.2425C25.5547 14.2896 25.4953 14.2011 25.4167 14.1693C25.3633 14.1477 25.3133 14.1273 25.2773 14.1839C25.238 14.2438 25.2773 14.2781 25.3313 14.3048C25.3727 14.3246 25.4167 14.3398 25.4473 14.371C25.5013 14.4251 25.6707 14.4105 25.602 14.5257C25.548 14.6173 25.4573 14.5104 25.3973 14.4767C25.294 14.4162 25.0893 14.3831 25.1113 14.2781C25.1453 14.1095 25.246 13.9262 25.38 13.8104C25.4873 13.7175 25.606 13.8931 25.7267 13.937C25.7787 13.9555 25.8673 13.972 25.852 14.0503C25.8373 14.1311 25.7747 14.084 25.7267 14.0732C25.614 14.0484 25.5047 13.8664 25.416 13.9924C25.3627 14.0675 25.582 14.0987 25.6513 14.1814C25.662 14.1935 25.6647 14.21 25.6773 14.2425ZM27.114 15.1423C27.134 15.2912 27.0707 15.3924 26.9073 15.3669C26.738 15.3402 26.6093 15.2416 26.58 15.0647C26.5773 15.0468 26.6 15.0106 26.6187 15.0055C26.6294 15.0021 26.6408 15.001 26.652 15.0023C26.6632 15.0036 26.674 15.0073 26.6836 15.013C26.6932 15.0187 26.7014 15.0263 26.7076 15.0353C26.7137 15.0444 26.7177 15.0546 26.7193 15.0653C26.7407 15.1868 26.8073 15.2409 26.9413 15.2435C26.9673 15.0443 26.5907 14.9533 26.8073 14.7465C26.916 14.6428 27.0487 14.7287 27.1433 14.812C27.2307 14.8878 27.3373 14.9711 27.178 15.0793C27.1553 15.0678 27.1247 15.0494 27.108 15.0621C27.074 15.0838 27.1073 15.1149 27.114 15.1423Z" fill="#11A147"/>
<path fill-rule="evenodd" clip-rule="evenodd" d="M22.5093 13.2472C22.43 13.2046 22.434 13.1638 22.4467 13.1193C22.472 13.0245 22.4207 12.9748 22.33 12.9481C22.2393 12.9201 22.1693 12.9239 22.1447 13.0321C22.136 13.0805 22.1093 13.1142 22.054 13.0964C21.99 13.0741 22.022 13.0245 22.034 12.9882C22.0593 12.9048 22.082 12.8208 22.122 12.7413C22.158 12.6617 22.1327 12.516 22.264 12.5256C22.4033 12.5351 22.554 12.5669 22.66 12.677C22.7073 12.7254 22.7267 12.8087 22.688 12.845C22.5753 12.9557 22.5847 13.1123 22.5093 13.2472Z" fill="#0FA046"/>
<path fill-rule="evenodd" clip-rule="evenodd" d="M18.3954 12.4371C18.18 12.5148 18.01 12.4696 17.844 12.4728C17.7687 12.4747 17.762 12.4206 17.762 12.3659C17.7674 12.3054 17.7674 12.2443 17.7674 12.1839C17.7754 11.8485 17.9 11.7626 18.2454 11.8561C18.284 11.8663 18.3207 11.8727 18.3234 11.914C18.3234 11.9713 18.28 11.9815 18.2267 11.9802C18.2194 11.9789 18.2107 11.977 18.2014 11.9783C18.098 12.0025 17.9127 11.8911 17.9094 12.0388C17.9054 12.152 18.1074 12.0719 18.2107 12.11C18.2254 12.1158 18.2414 12.1285 18.264 12.1444C18.1987 12.257 18.09 12.194 18.006 12.2074C17.956 12.215 17.8907 12.194 17.8834 12.2717C17.874 12.3633 17.9407 12.3589 18.006 12.3652C18.1174 12.3779 18.238 12.3379 18.3954 12.4371Z" fill="#0B9F43"/>
<path fill-rule="evenodd" clip-rule="evenodd" d="M16.6253 12.4855C16.5093 12.4613 16.5253 12.3977 16.5053 12.3531C16.4707 12.271 16.402 12.271 16.3267 12.2767C16.2407 12.2844 16.194 12.3162 16.2013 12.4072C16.2067 12.4517 16.2253 12.5237 16.1387 12.5135C16.064 12.5046 16.0853 12.4352 16.0813 12.3881C16.0747 12.3111 16.0667 12.2322 16.0747 12.1558C16.0853 12.0706 16 11.9401 16.1287 11.9096C16.2613 11.8765 16.4147 11.8529 16.5527 11.9159C16.6127 11.9433 16.66 12.0101 16.638 12.0642C16.5873 12.2004 16.6273 12.3385 16.6253 12.4855Z" fill="#079D3F"/>
<path fill-rule="evenodd" clip-rule="evenodd" d="M15.218 12.2691C15.2393 12.0967 15.3186 11.9567 15.5166 11.963C15.7066 11.9688 15.808 12.0948 15.808 12.2761C15.808 12.4562 15.72 12.5803 15.5193 12.579C15.3153 12.5778 15.246 12.4365 15.218 12.2691Z" fill="#15A24A"/>
<path fill-rule="evenodd" clip-rule="evenodd" d="M27.9093 15.5019C27.8907 15.673 27.802 15.8022 27.5973 15.8194C27.4087 15.834 27.3087 15.7309 27.294 15.5617C27.2773 15.3905 27.4533 15.2269 27.6327 15.2282C27.79 15.2295 27.9053 15.3383 27.9093 15.5019Z" fill="#11A147"/>
<path fill-rule="evenodd" clip-rule="evenodd" d="M24.1667 13.51C24.3173 13.6258 24.1347 13.7022 24.128 13.7996C24.0027 13.7442 23.846 13.7665 23.7447 13.6615C23.6367 13.5495 23.6567 13.4228 23.7273 13.2994C23.8053 13.1689 23.9253 13.1129 24.0727 13.1626C24.2073 13.2084 24.308 13.2949 24.2427 13.4578C24.1393 13.4757 24.0547 13.3458 23.9093 13.433C24.006 13.4757 24.122 13.4165 24.1667 13.51Z" fill="#0C9F43"/>
<path fill-rule="evenodd" clip-rule="evenodd" d="M20.54 12.1991C20.452 12.2978 20.3873 12.2596 20.3267 12.2608C20.268 12.2608 20.2053 12.2144 20.1327 12.2723C20.198 12.3741 20.356 12.3086 20.4173 12.4098C20.4087 12.4244 20.4047 12.4441 20.3933 12.4543C20.3053 12.5205 20.1647 12.3601 20.11 12.4925C20.06 12.6064 20.1913 12.5669 20.248 12.586C20.312 12.6102 20.3913 12.6013 20.4687 12.684C20.2893 12.7591 20.0753 12.7241 20.0013 12.6414C19.8847 12.5109 19.9667 12.2793 20.0553 12.1635C20.16 12.0267 20.3513 12.1603 20.54 12.1991Z" fill="#19A44D"/>
<path fill-rule="evenodd" clip-rule="evenodd" d="M21.6766 12.7528C21.5253 12.7375 21.3533 12.6357 21.31 12.8737C21.3086 12.8813 21.256 12.8921 21.24 12.8819C21.222 12.8724 21.212 12.8368 21.2153 12.8164C21.2546 12.6656 21.2746 12.5039 21.3446 12.3684C21.426 12.2157 21.564 12.3449 21.678 12.3595C21.814 12.3767 21.8893 12.4556 21.8746 12.5924C21.8613 12.7101 21.768 12.7419 21.6766 12.7528Z" fill="#0D9F44"/>
<path fill-rule="evenodd" clip-rule="evenodd" d="M23.48 13.1174C23.4653 13.3089 23.3667 13.4413 23.166 13.447C22.9867 13.4534 22.886 13.3331 22.89 13.1626C22.8953 12.978 22.9893 12.8444 23.198 12.8386C23.3893 12.8323 23.4633 12.9551 23.48 13.1174Z" fill="#0FA046"/>
<path fill-rule="evenodd" clip-rule="evenodd" d="M18.986 12.4263C18.964 12.4715 18.946 12.5358 18.8826 12.5211C18.7726 12.4963 18.822 12.3951 18.7953 12.3289C18.714 12.2532 18.7353 12.3576 18.71 12.3767C18.7006 12.4238 18.7233 12.4957 18.6566 12.5052C18.5746 12.5148 18.594 12.4397 18.596 12.3951C18.6026 12.3022 18.604 12.2049 18.6306 12.1158C18.654 12.0394 18.5693 11.8988 18.7286 11.8975C18.8693 11.8969 18.8386 12.0337 18.8566 12.1158C18.8753 12.2099 18.8853 12.25 18.966 12.1565C19.0493 12.1355 19.0666 12.1934 19.086 12.2494C19.0966 12.3309 19.0586 12.3875 18.986 12.4263Z" fill="#0EA044"/>
<path fill-rule="evenodd" clip-rule="evenodd" d="M26.0867 14.7637C26.136 14.7637 26.186 14.826 26.234 14.7726C26.2707 14.7325 26.238 14.693 26.2054 14.6606C26.1814 14.6357 26.156 14.6122 26.1334 14.5855C26.0654 14.5072 25.97 14.4321 26.064 14.3188C26.1494 14.2151 26.2487 14.2406 26.3474 14.3061C26.3654 14.3392 26.3594 14.371 26.3407 14.4009C26.268 14.5097 26.4034 14.5759 26.4007 14.6688C26.4214 14.756 26.4347 14.8438 26.334 14.8941C26.2087 14.9577 26.112 14.8992 26.02 14.8228C26.01 14.7726 26.0294 14.7477 26.0867 14.7637Z" fill="#10A146"/>
<path fill-rule="evenodd" clip-rule="evenodd" d="M24.1667 13.51C24.1153 13.5444 24.012 13.433 24.0153 13.517C24.022 13.6659 23.944 13.6526 23.8713 13.6087C23.7733 13.5508 23.768 13.4515 23.83 13.3598C23.89 13.2701 23.9747 13.2179 24.0773 13.2911C24.14 13.335 24.1873 13.4012 24.2413 13.4578L24.1667 13.51Z" fill="#ECF7F0"/>
<path fill-rule="evenodd" clip-rule="evenodd" d="M19.03 12.2755C19.0105 12.2362 18.9891 12.1977 18.966 12.1603C18.9893 12.1037 19.0107 12.0464 19.0387 11.9917C19.064 11.9401 19.108 11.9115 19.17 11.9306C19.2393 11.9528 19.234 12.0037 19.23 12.0572C19.2153 12.2131 19.202 12.3684 19.1893 12.5243C19.092 12.5835 19.0673 12.5294 19.0513 12.4492C19.0393 12.3913 19.0707 12.3289 19.03 12.2755Z" fill="#17A34C"/>
<path fill-rule="evenodd" clip-rule="evenodd" d="M26.4027 14.6682C26.3427 14.6097 26.2787 14.5543 26.2227 14.4919C26.1574 14.4181 26.1827 14.3729 26.28 14.3608C26.4207 14.3907 26.5067 14.4557 26.4654 14.6097C26.446 14.6287 26.4247 14.6491 26.4027 14.6682Z" fill="#D7EFE0"/>
<path fill-rule="evenodd" clip-rule="evenodd" d="M26.4653 14.6097C26.4006 14.5295 26.3833 14.4149 26.28 14.3608L26.3493 14.3055C26.4613 14.3812 26.666 14.4245 26.4653 14.6097Z" fill="#2BAB5B"/>
<path fill-rule="evenodd" clip-rule="evenodd" d="M27.114 15.1423C27.1053 15.1372 27.094 15.1347 27.09 15.1277C27.0367 15.0335 26.86 14.9489 26.92 14.8655C26.9953 14.7649 27.074 14.8839 27.1153 14.9699C27.134 15.0061 27.1567 15.0418 27.178 15.0793C27.156 15.1003 27.134 15.1213 27.114 15.1423Z" fill="#E6F5EC"/>
<path fill-rule="evenodd" clip-rule="evenodd" d="M26.0867 14.7637C26.0653 14.7834 26.0447 14.8038 26.02 14.8235C25.992 14.8044 25.9533 14.791 25.9353 14.7637C25.9013 14.702 25.804 14.6199 25.9167 14.5715C26.0113 14.5282 26.0113 14.6434 26.042 14.6994C26.0547 14.7229 26.0707 14.7427 26.0867 14.7637Z" fill="#29AA59"/>
<path fill-rule="evenodd" clip-rule="evenodd" d="M19.03 12.2755C19.1273 12.3118 19.076 12.3894 19.0773 12.4473C19.0826 12.5268 19.112 12.5536 19.19 12.5256C19.0273 12.6758 19.048 12.4753 18.9853 12.4308C19.002 12.3779 19.0146 12.3264 19.03 12.2755Z" fill="#DDF1E4"/>
<path fill-rule="evenodd" clip-rule="evenodd" d="M18.7067 12.3773V12.1724C18.7987 12.2004 18.8013 12.2621 18.792 12.3296C18.764 12.3455 18.7347 12.3608 18.7067 12.3773Z" fill="#6FC690"/>
<path fill-rule="evenodd" clip-rule="evenodd" d="M17.0453 12.1673C17.0547 12.0744 17.008 11.9535 17.174 11.9637C17.2953 11.9707 17.3833 12.0171 17.39 12.1495C17.3967 12.292 17.3093 12.35 17.1713 12.3595C16.996 12.3729 17.0673 12.2411 17.0453 12.1673Z" fill="#F5FBF7"/>
<path fill-rule="evenodd" clip-rule="evenodd" d="M24.7333 13.5673C24.8026 13.6036 24.9086 13.6106 24.9313 13.7086C24.9426 13.7595 24.8966 13.7932 24.8493 13.7786C24.7613 13.7531 24.6446 13.7519 24.6326 13.6335C24.6293 13.5991 24.668 13.5559 24.7333 13.5673Z" fill="#EFF8F3"/>
<path fill-rule="evenodd" clip-rule="evenodd" d="M22.5713 12.7846C22.5533 12.8507 22.5047 12.8737 22.4487 12.8539C22.3733 12.8278 22.252 12.8565 22.2507 12.7305C22.248 12.6649 22.2947 12.6452 22.3573 12.6649C22.44 12.6904 22.54 12.6872 22.5713 12.7846Z" fill="#DEF2E5"/>
<path fill-rule="evenodd" clip-rule="evenodd" d="M16.3433 12.0012C16.4086 12.0089 16.512 11.9758 16.5053 12.082C16.4986 12.1749 16.4 12.1603 16.3293 12.1616C16.2726 12.1635 16.1913 12.1915 16.186 12.0941C16.182 11.9783 16.2766 12.0146 16.3433 12.0012Z" fill="#F3FAF5"/>
<path fill-rule="evenodd" clip-rule="evenodd" d="M15.5 12.0897C15.6207 12.0973 15.6807 12.166 15.6853 12.2742C15.692 12.3709 15.642 12.4537 15.538 12.4626C15.418 12.4734 15.364 12.3862 15.3573 12.2799C15.3507 12.1819 15.3907 12.1107 15.5 12.0897Z" fill="#F3FAF6"/>
<path fill-rule="evenodd" clip-rule="evenodd" d="M27.7767 15.5241C27.7593 15.6297 27.6927 15.7042 27.564 15.7042C27.4607 15.7029 27.422 15.631 27.4327 15.5438C27.4427 15.4255 27.5167 15.3491 27.6427 15.351C27.742 15.3536 27.7807 15.4217 27.7767 15.5241Z" fill="#F9FCFA"/>
<path fill-rule="evenodd" clip-rule="evenodd" d="M21.52 12.4397C21.5873 12.4791 21.7227 12.4384 21.742 12.5657C21.748 12.614 21.692 12.6389 21.6473 12.6293C21.56 12.6109 21.438 12.6408 21.4273 12.5065C21.4253 12.4651 21.4447 12.4206 21.52 12.4397Z" fill="#E7F5EC"/>
<path fill-rule="evenodd" clip-rule="evenodd" d="M23.3467 13.1327C23.334 13.2427 23.2773 13.3197 23.1607 13.3197C23.046 13.321 23.0053 13.2447 23.0107 13.1441C23.02 13.0334 23.086 12.9596 23.1987 12.9551C23.3107 12.9513 23.3467 13.0366 23.3467 13.1327Z" fill="#F5FBF7"/>
</svg>
