<svg width="30" height="27" viewBox="0 0 30 27" fill="none" xmlns="http://www.w3.org/2000/svg">
<path d="M18.0347 7.19444V4.09722C18.0347 3.27579 17.7084 2.488 17.1276 1.90716C16.5467 1.32631 15.7589 1 14.9375 1H4.09722C3.27579 1 2.488 1.32631 1.90716 1.90716C1.32631 2.488 1 3.27579 1 4.09722V22.6806C1 23.502 1.32631 24.2898 1.90716 24.8706C2.488 25.4515 3.27579 25.7778 4.09722 25.7778H14.9375C15.7589 25.7778 16.5467 25.4515 17.1276 24.8706C17.7084 24.2898 18.0347 23.502 18.0347 22.6806V19.5833" stroke="white" stroke-width="2" stroke-linecap="round" stroke-linejoin="round"/>
<path d="M10.2917 13.3889H28.8751M28.8751 13.3889L24.2292 8.74304M28.8751 13.3889L24.2292 18.0347" stroke="white" stroke-width="2" stroke-linecap="round" stroke-linejoin="round"/>
</svg>
