<svg width="30" height="30" viewBox="0 0 30 30" fill="none" xmlns="http://www.w3.org/2000/svg">
<path d="M21.9625 16.55L21.95 16.575C22 16.1625 22.05 15.7375 22.05 15.3125C22.05 14.8875 22.0125 14.4875 21.9625 14.075L21.975 14.1L25.025 11.7L21.9875 6.425L18.4 7.875L18.4125 7.8875C17.7625 7.3875 17.05 6.9625 16.275 6.6375H16.2875L15.7125 2.8125H9.625L9.075 6.65H9.0875C8.3125 6.975 7.6 7.4 6.95 7.9L6.9625 7.8875L3.3625 6.425L0.3125 11.7L3.3625 14.1L3.375 14.075C3.325 14.4875 3.2875 14.8875 3.2875 15.3125C3.2875 15.7375 3.325 16.1625 3.3875 16.575L3.375 16.55L0.75 18.6125L0.3375 18.9375L3.375 24.1875L6.975 22.75L6.95 22.7C7.6125 23.2125 8.325 23.6375 9.1125 23.9625H9.075L9.6375 27.8125H15.7C15.7 27.8125 15.7375 27.5875 15.775 27.2875L16.25 23.975H16.2375C17.0125 23.65 17.7375 23.225 18.4 22.7125L18.375 22.7625L21.975 24.2L25.0125 18.95C25.0125 18.95 24.8375 18.8 24.6 18.625L21.9625 16.55ZM12.6625 19.6875C10.25 19.6875 8.2875 17.725 8.2875 15.3125C8.2875 12.9 10.25 10.9375 12.6625 10.9375C15.075 10.9375 17.0375 12.9 17.0375 15.3125C17.0375 17.725 15.075 19.6875 12.6625 19.6875Z" fill="white"/>
</svg>
