<svg width="56" height="56" viewBox="0 0 56 56" fill="none" xmlns="http://www.w3.org/2000/svg">
<path d="M35.56 28C35.56 23.8 32.2 20.44 28 20.44C23.8 20.44 20.44 23.8 20.44 28C20.44 32.2 23.8 35.56 28 35.56C32.2 35.56 35.56 32.2 35.56 28ZM39.48 28C39.48 34.44 34.44 39.48 28 39.48C21.56 39.48 16.52 34.44 16.52 28C16.52 21.56 21.56 16.52 28 16.52C34.44 16.52 39.48 21.56 39.48 28ZM42.56 15.96C42.56 17.64 41.44 18.76 39.76 18.76C38.08 18.76 36.96 17.64 36.96 15.96C36.96 14.28 38.08 13.16 39.76 13.16C41.44 13.16 42.56 14.56 42.56 15.96ZM28 9.52001C24.64 9.52001 17.64 9.24001 14.84 10.36C12.88 11.2 11.2 12.88 10.64 14.84C9.51998 17.64 9.79998 24.64 9.79998 28C9.79998 31.36 9.51998 38.36 10.64 41.16C11.2 43.12 12.88 44.8 14.84 45.36C17.64 46.48 24.92 46.2 28 46.2C31.08 46.2 38.36 46.48 41.16 45.36C43.12 44.52 44.52 43.12 45.36 41.16C46.48 38.08 46.2 31.08 46.2 28C46.2 24.92 46.48 17.64 45.36 14.84C44.8 12.88 43.12 11.2 41.16 10.64C38.36 9.24001 31.36 9.52001 28 9.52001ZM50.4 28V37.24C50.4 40.6 49.28 43.96 46.76 46.76C44.24 49.28 40.88 50.4 37.24 50.4H18.76C15.4 50.4 12.04 49.28 9.23998 46.76C6.99998 44.24 5.59998 40.88 5.59998 37.24V18.76C5.59998 15.12 6.99998 11.76 9.23998 9.24001C12.04 7.00001 15.4 5.60001 18.76 5.60001H37.24C40.6 5.60001 43.96 6.72001 46.76 9.24001C49 11.76 50.4 15.12 50.4 18.76V28Z" fill="white"/>
</svg>
