<svg width="44" height="44" viewBox="0 0 44 44" fill="none" xmlns="http://www.w3.org/2000/svg">
<g clip-path="url(#clip0_2_23)">
<path d="M39.875 0H4.125C1.85625 0 0 1.85625 0 4.125V39.875C0 42.1437 1.85625 44 4.125 44H39.875C42.1437 44 44 42.1437 44 39.875V4.125C44 1.85625 42.1437 0 39.875 0ZM16.5 35.75H11V16.5H16.5V35.75ZM13.75 13.75C13.0207 13.75 12.3212 13.4603 11.8055 12.9445C11.2897 12.4288 11 11.7293 11 11C11 10.2707 11.2897 9.57118 11.8055 9.05546C12.3212 8.53973 13.0207 8.25 13.75 8.25C14.4793 8.25 15.1788 8.53973 15.6945 9.05546C16.2103 9.57118 16.5 10.2707 16.5 11C16.5 11.7293 16.2103 12.4288 15.6945 12.9445C15.1788 13.4603 14.4793 13.75 13.75 13.75ZM35.75 35.75H30.25V24.75C30.25 24.0207 29.9603 23.3212 29.4445 22.8055C28.9288 22.2897 28.2293 22 27.5 22C26.7707 22 26.0712 22.2897 25.5555 22.8055C25.0397 23.3212 24.75 24.0207 24.75 24.75V35.75H19.25V16.5H24.75V19.9128C25.883 18.3563 27.621 16.5 29.5625 16.5C32.9835 16.5 35.75 19.5772 35.75 23.375V35.75Z" fill="white"/>
</g>
<defs>
<clipPath id="clip0_2_23">
<rect width="44" height="44" fill="white"/>
</clipPath>
</defs>
</svg>
