<svg width="427" height="326" viewBox="0 0 427 326" fill="none" xmlns="http://www.w3.org/2000/svg">
<mask id="mask0_45_7" style="mask-type:luminance" maskUnits="userSpaceOnUse" x="67" y="0" width="283" height="271">
<path fill-rule="evenodd" clip-rule="evenodd" d="M67.5108 0.558777H349.401V270.013H67.5108V0.558777Z" fill="white"/>
</mask>
<g mask="url(#mask0_45_7)">
<path d="M149.326 11.0385C144.749 13.5253 140.527 16.5576 136.329 19.594C114.694 35.2429 92.64 52.0367 80.5538 75.2554C67.542 100.252 67.8031 130.14 75.8471 156.981C84.6665 186.409 102.124 212.772 121.118 237.418C128.676 247.224 136.872 257.129 148.163 262.776C155.096 266.244 162.923 267.926 170.743 268.193C178.563 268.46 186.387 267.343 193.959 265.454C209.101 261.675 223.193 254.868 237.774 249.435C251.249 244.413 265.175 240.555 278.637 235.5C292.098 230.445 305.249 224.081 315.919 214.748C329.095 203.221 337.881 187.614 342.884 171.224C347.888 154.835 349.294 137.623 349.336 120.55C349.374 105.395 348.338 90.1141 344.167 75.492C339.997 60.8699 332.529 46.8603 321.085 36.3712C310.198 26.3936 296.186 19.9949 281.748 15.8274C267.31 11.66 252.321 9.58209 237.447 7.19735C222.637 4.82295 207.804 2.12415 192.79 1.86897C177.776 1.61379 162.38 3.94476 149.326 11.0385Z" fill="#F8E730"/>
</g>
<path d="M147.415 211.759C143.861 211.614 139.344 211.542 133.861 211.542C132.824 211.542 131.895 211.191 131.079 210.487C130.268 209.78 129.862 208.998 129.862 208.143C129.862 206.304 131.122 205.385 133.645 205.385H142.303C142.303 189.11 141.784 168.584 140.746 143.809C140.155 123.989 139.563 108.414 138.973 97.091L139.2 86.2635V72.2444C139.2 65.1718 139.051 60.6415 138.756 58.6581H130.975C129.497 58.6581 128.759 57.6664 128.759 55.683C128.759 54.4096 129.348 53.4202 130.532 52.717C131.57 52.291 134.309 52.0769 138.756 52.0769H144.972C147.191 52.2166 150.004 52.2842 153.413 52.2842C154.594 52.2842 155.556 52.5344 156.299 53.0325C157.039 53.5261 157.412 54.2676 157.412 55.2593C157.412 56.1135 157.188 56.8956 156.742 57.6033C156.301 58.3065 155.634 58.6581 154.743 58.6581C153.705 58.6581 152.819 58.5905 152.083 58.4508H147.198C145.712 58.4508 144.823 58.5928 144.529 58.8745L144.085 59.722C144.085 70.7636 145.047 93.0589 146.971 126.608C148.749 157.61 149.64 179.905 149.64 193.493V199.443C149.49 201.283 149.414 203.194 149.414 205.177H157.412C160.819 205.177 162.524 206.167 162.524 208.143C162.524 208.998 162.189 209.816 161.524 210.596C160.857 211.371 160.152 211.759 159.412 211.759H147.415ZM220.502 216.005C216.352 216.005 211.981 214.447 207.392 211.335C202.801 208.222 199.545 204.681 197.621 200.715C195.841 197.036 194.023 185.359 192.17 165.681C190.321 146.004 189.397 131.35 189.397 121.721V110.47C189.251 107.213 189.18 103.605 189.18 99.6424C189.18 92.2813 189.623 84.99 190.51 77.7709C191.099 74.2323 191.877 71.1874 192.839 68.6383C193.801 66.0914 195.171 63.6144 196.951 61.2095C200.208 56.3953 205.096 53.2106 211.618 51.6531C215.018 50.8057 218.795 50.382 222.945 50.382C225.755 50.382 228.604 51.1618 231.49 52.717C234.381 54.2744 235.828 56.1135 235.828 58.2344C235.828 59.7918 234.642 60.5694 232.273 60.5694C231.386 60.5694 229.681 60.0736 227.161 59.0819C224.94 58.0902 222.94 57.5943 221.162 57.5943C217.017 57.5943 213.28 58.4102 209.948 60.0375C206.614 61.6671 203.987 63.8285 202.063 66.5196C200.434 68.7802 199.026 71.8928 197.838 75.8596C196.654 79.8219 195.916 83.7842 195.622 87.751C195.174 91.2918 194.952 95.5381 194.952 100.49L195.178 112.381C195.322 115.778 195.395 119.458 195.395 123.425C195.395 133.193 196.433 147.56 198.508 166.528C200.583 185.497 202.582 196.468 204.506 199.443C206.284 202.13 208.913 204.183 212.391 205.601C215.873 207.014 219.54 207.72 223.388 207.72C230.198 207.72 235.38 205.669 238.941 201.562C240.273 199.867 241.678 199.02 243.157 199.02C244.489 199.02 245.156 200.009 245.156 201.986C245.156 204.535 244.34 206.764 242.713 208.675C241.084 210.587 238.861 212.038 236.045 213.03C231.311 215.013 226.128 216.005 220.502 216.005ZM268.487 213.877C266.707 213.877 265.818 211.402 265.818 206.449C265.818 199.369 265.743 193.07 265.592 187.552L265.149 168.439V151.238C265.002 146.142 264.932 140.408 264.932 134.036C264.932 115.068 264.559 97.5148 263.819 81.3771L263.592 73.732C263.152 65.3837 262.932 58.5905 262.932 53.348L263.592 52.5006C263.743 52.2189 264.04 51.865 264.488 51.4368C264.632 51.0175 265 50.7336 265.592 50.5893C265.894 50.4518 266.412 50.382 267.148 50.382C272.335 50.382 277.037 51.5157 281.258 53.7808C285.476 56.0414 288.919 59.154 291.585 63.1208C296.773 70.9056 299.366 79.7521 299.366 89.6623C299.366 96.034 298.291 102.545 296.141 109.199C293.99 115.852 290.767 121.87 286.473 127.248C282.033 133.049 277.072 136.443 271.59 137.435L272.043 161.011L272.486 172.469C273.076 186.065 273.373 197.674 273.373 207.296C273.373 209.563 273.038 211.227 272.373 212.291C271.706 213.348 270.411 213.877 268.487 213.877ZM271.59 129.583C272.923 129.438 274.255 128.871 275.589 127.879C275.884 127.741 276.403 127.176 277.146 126.184C277.146 126.184 277.664 125.688 278.702 124.696C288.327 115.496 293.141 103.959 293.141 90.086C293.141 82.1592 291.512 74.7958 288.256 67.9982C286.476 64.4641 283.882 61.6738 280.475 59.6228C277.072 57.5673 273.076 56.5395 268.487 56.5395C268.487 64.6061 268.931 76.7071 269.817 92.8448C270.704 108.982 271.147 121.088 271.147 129.159L271.59 129.583Z" fill="black"/>
<path d="M5.52156 313.816C4.62085 313.78 3.47728 313.762 2.08848 313.762C1.8244 313.762 1.58861 313.672 1.38111 313.491C1.17362 313.311 1.06987 313.117 1.06987 312.905C1.06987 312.436 1.39055 312.202 2.03189 312.202H4.22944C4.22944 308.073 4.0974 302.869 3.83332 296.587C3.68241 291.563 3.53151 287.615 3.3806 284.741L3.43719 281.991V278.439C3.43719 276.643 3.39947 275.496 3.32401 274.995H1.35282C0.975557 274.995 0.786926 274.743 0.786926 274.238C0.786926 273.913 0.937831 273.661 1.23964 273.481C1.50372 273.372 2.19694 273.318 3.32401 273.318H4.89908C5.46498 273.354 6.17706 273.372 7.04005 273.372C7.34186 273.372 7.58708 273.436 7.77571 273.562C7.96434 273.688 8.05865 273.877 8.05865 274.13C8.05865 274.346 8.00206 274.544 7.88889 274.725C7.77571 274.905 7.60594 274.995 7.37958 274.995C7.1155 274.995 6.8915 274.977 6.70994 274.941H5.46498C5.08771 274.941 4.86136 274.977 4.7859 275.049L4.68216 275.257C4.68216 278.058 4.92266 283.713 5.40839 292.224C5.8611 300.085 6.08746 305.738 6.08746 309.182V310.696C6.04973 311.161 6.03087 311.643 6.03087 312.148H8.05865C8.91928 312.148 9.35078 312.4 9.35078 312.905C9.35078 313.117 9.26589 313.32 9.09612 313.518C8.93107 313.717 8.75659 313.816 8.56796 313.816H5.52156ZM31.0976 314.249C30.7958 314.249 30.5788 314.14 30.4468 313.924C30.3195 313.708 30.2016 313.388 30.0884 312.959C30.0507 312.671 29.9752 312.418 29.862 312.202L29.9186 312.04C29.6168 310.352 28.9778 308.287 28.004 305.846L26.9854 303.051C26.91 302.979 26.5539 302.064 25.9197 300.302L25.4669 299.012C22.0834 289.03 19.9613 283.628 19.1006 282.803C18.7988 283.772 18.6479 285.027 18.6479 286.571C18.6479 287.396 18.6668 288.113 18.7045 288.726L18.7611 290.826L18.7045 292.116C18.6668 292.512 18.6479 292.943 18.6479 293.405C18.6479 294.198 18.6857 294.881 18.7611 295.451C18.8366 296.601 18.8743 297.173 18.8743 297.173H18.7045C18.7045 303.173 18.8366 306.475 19.1006 307.081V311.932C19.2515 312.22 19.327 312.596 19.327 313.058C19.327 313.347 19.2233 313.599 19.0158 313.816C18.8083 314.032 18.5536 314.14 18.2518 314.14C17.4643 314.14 17.0729 313.171 17.0729 311.228L17.186 309.506C17.2615 308.972 17.2992 308.379 17.2992 307.73C17.2992 306.006 17.2426 303.421 17.1294 299.977C17.0163 296.533 16.9597 293.95 16.9597 292.224C16.9597 291.185 17.0163 289.587 17.1294 287.428C17.2426 285.313 17.2992 283.736 17.2992 282.694V281.991C17.2992 280.231 17.634 279.084 18.3084 278.547L18.4782 278.71L19.0441 278.601C19.195 278.637 19.3647 278.746 19.5534 278.926C19.7043 279.066 19.7797 279.223 19.7797 279.404L19.8929 279.728C19.8929 279.8 19.9023 279.864 19.9212 279.918C19.94 279.972 19.9495 279.999 19.9495 279.999C20.546 282.548 21.8971 286.12 24.005 290.718C26.1413 295.564 27.4759 298.776 28.004 300.356C28.3742 301.613 28.6737 302.725 28.9 303.691C29.6168 306.745 30.4609 309.098 31.4371 310.751L31.5503 310.588C32.4109 302.619 32.8424 292.835 32.8424 281.234L32.7858 280.594C32.7481 280.414 32.7292 280.179 32.7292 279.891C32.7292 279.14 32.9933 278.764 33.5215 278.764C33.861 278.764 34.1487 278.926 34.3892 279.251C34.6344 279.571 34.757 279.927 34.757 280.323V283.93L34.4835 284.362C34.4835 287.77 34.276 293.373 33.861 301.167C33.446 308.956 33.0499 313.191 32.6726 313.87L31.7201 314.086V314.14L31.6635 314.086L31.0976 314.249ZM43.269 314.681C42.854 314.609 42.4579 314.456 42.0806 314.221C41.7081 313.987 41.5053 313.708 41.4676 313.383L41.7411 312.959C41.892 312.959 42.2315 313.011 42.7597 313.113C43.1747 313.257 43.5142 313.329 43.7783 313.329C44.6012 313.329 45.3298 313.018 45.9664 312.391C46.6078 311.76 47.0982 310.944 47.4377 309.939C47.9588 308.071 48.2206 306.313 48.2206 304.665C48.2206 302.19 47.433 299.533 45.8627 296.695C44.8818 295.043 44.1273 293.734 43.5991 292.765C43.0757 291.791 42.6088 290.678 42.1938 289.42C41.7081 287.948 41.4676 286.53 41.4676 285.165C41.4676 283.873 41.8024 282.35 42.4767 280.594C42.8163 279.764 43.2926 279.093 43.9103 278.574C44.5328 278.051 45.1978 277.79 45.9098 277.79C46.4003 277.79 46.8766 277.952 47.3434 278.277C47.815 278.601 48.0508 278.942 48.0508 279.296C48.0508 279.584 47.8079 279.728 47.3246 279.728C47.1737 279.728 46.985 279.674 46.7587 279.566C46.5323 279.458 46.3248 279.404 46.1362 279.404C45.575 279.404 45.0704 279.62 44.6177 280.053C44.165 280.486 43.8278 281.042 43.6085 281.721C43.1558 283.051 42.9295 284.27 42.9295 285.381C42.9295 286.066 43.0238 286.767 43.2124 287.482C43.2501 287.698 43.2879 287.878 43.3256 288.023C43.3633 288.167 43.3822 288.275 43.3822 288.347L43.7217 289.42L43.9952 290.394L44.4479 291.358C44.5611 291.611 44.6837 291.836 44.8158 292.034C44.9478 292.233 45.0704 292.422 45.1836 292.602L45.8627 293.729C46.0065 293.946 46.3248 294.46 46.8153 295.271C47.3057 296.078 47.7537 296.928 48.164 297.822C48.5412 298.58 48.8242 299.292 49.0128 299.959C49.2014 300.622 49.3712 301.417 49.5221 302.348C49.6353 303.245 49.6919 304.23 49.6919 305.305C49.6919 307.032 49.4467 308.648 48.9562 310.155C48.2819 311.954 47.3057 313.209 46.023 313.924C45.3109 314.357 44.488 314.573 43.5519 314.573L43.269 314.681ZM47.7773 279.566C47.7773 279.53 47.7584 279.512 47.7207 279.512V279.566H47.7773ZM60.2222 313.275L60.1657 311.282C60.1279 310.712 60.1091 310.065 60.1091 309.344C60.1091 308.99 60.1279 308.686 60.1657 308.434L60.2222 307.46C60.2222 307.106 60.1468 306.676 59.9959 306.171C59.9959 303.768 59.8096 299.299 59.4394 292.765C59.0621 286.443 58.8546 282.151 58.8169 279.891C56.4897 279.891 54.9311 279.837 54.1389 279.728C53.3891 279.548 53.0165 279.264 53.0165 278.872C53.2051 278.475 53.5588 278.277 54.0823 278.277C55.207 278.277 56.841 278.349 58.9867 278.493C60.9343 278.674 62.5707 278.764 63.8911 278.764H65.07L66.249 278.71C66.928 278.71 67.2676 278.942 67.2676 279.404C67.2676 279.62 67.145 279.791 66.8997 279.918C66.6545 280.044 66.3622 280.107 66.0226 280.107C65.2728 280.107 64.4876 280.071 63.6647 279.999L61.2408 279.891C61.0899 279.891 61.0145 279.945 61.0145 280.053C60.9767 280.161 60.9579 280.504 60.9579 281.081C60.9579 284.561 61.1843 289.839 61.637 296.912C62.0449 304.232 62.25 309.493 62.25 312.689C62.25 312.937 62.0897 313.167 61.769 313.383C61.4531 313.599 61.1465 313.708 60.8447 313.708L60.2222 313.275ZM76.2841 314.032C75.4164 314.032 74.9071 313.852 74.7562 313.491C74.5676 313.491 74.4191 313.509 74.313 313.545H73.8602C73.0303 313.545 72.5044 313.369 72.2852 313.013C72.2852 312.761 72.4314 312.545 72.7285 312.364L73.0114 312.094H74.6431L74.8694 311.877L74.9826 311.391L75.0391 310.751C75.0391 308.558 74.9826 306.601 74.8694 304.881L74.7562 302.889L74.643 298.958C74.643 297.559 74.6996 295.458 74.8128 292.656L74.926 286.409C74.926 283.682 74.8317 281.599 74.643 280.161C74.3082 280.053 73.747 279.999 72.9548 279.999L72.3323 280.053C72.1107 280.089 71.8701 280.107 71.6061 280.107C70.8893 280.107 70.5309 279.8 70.5309 279.187C70.5309 279.05 70.7006 278.908 71.0402 278.764C71.3797 278.619 71.6627 278.547 71.889 278.547C73.3155 278.547 74.7421 278.619 76.1709 278.764C77.0316 278.8 77.8922 278.96 78.7552 279.242C79.4342 279.458 79.7738 279.764 79.7738 280.161C79.7738 280.233 79.7172 280.377 79.604 280.594L78.3119 280.702C78.0478 280.486 77.5008 280.377 76.6708 280.377L76.3973 280.54C76.5034 280.864 76.5576 281.815 76.5576 283.389C76.5576 285.764 76.5388 287.901 76.5011 289.799L76.3973 296.209C76.3973 297.827 76.4681 299.783 76.6143 302.078C76.7274 304.699 76.784 306.673 76.784 308.001V308.704C76.7463 308.952 76.7275 309.272 76.7275 309.669C76.7275 310.498 76.784 311.001 76.8972 311.174L76.8407 311.282C76.8407 311.643 77.2557 311.823 78.0856 311.823C78.4181 311.823 78.6987 311.805 78.925 311.769H79.7739C80.8609 311.769 81.4055 312.022 81.4055 312.527C81.4055 312.851 81.2924 313.113 81.066 313.311C80.8396 313.505 80.5402 313.599 80.17 313.599C79.8305 313.599 79.5287 313.563 79.2646 313.491C78.9628 313.455 78.6445 313.437 78.312 313.437C78.0856 313.437 77.7461 313.527 77.2934 313.708C76.8407 313.924 76.5034 314.032 76.2841 314.032ZM90.3041 313.275L90.2476 311.282C90.2099 310.712 90.191 310.065 90.191 309.344C90.191 308.99 90.2099 308.686 90.2476 308.434L90.3041 307.46C90.3041 307.106 90.2287 306.676 90.0778 306.171C90.0778 303.768 89.8915 299.299 89.5213 292.765C89.1441 286.443 88.9366 282.151 88.8988 279.891C86.5716 279.891 85.013 279.837 84.2208 279.728C83.471 279.548 83.0984 279.264 83.0984 278.872C83.2871 278.475 83.6408 278.277 84.1642 278.277C85.2889 278.277 86.9229 278.349 89.0686 278.493C91.0162 278.674 92.6526 278.764 93.973 278.764H95.152L96.3309 278.71C97.01 278.71 97.3495 278.942 97.3495 279.404C97.3495 279.62 97.2269 279.791 96.9817 279.918C96.7365 280.044 96.4441 280.107 96.1046 280.107C95.3547 280.107 94.5696 280.071 93.7467 279.999L91.3228 279.891C91.1719 279.891 91.0964 279.945 91.0964 280.053C91.0587 280.161 91.0398 280.504 91.0398 281.081C91.0398 284.561 91.2662 289.839 91.7189 296.912C92.1268 304.232 92.332 309.493 92.332 312.689C92.332 312.937 92.1716 313.167 91.851 313.383C91.535 313.599 91.2285 313.708 90.9267 313.708L90.3041 313.275ZM109.233 314.844C108.634 314.844 107.988 314.654 107.29 314.276C106.597 313.897 106.027 313.46 105.574 312.959C105.046 312.31 104.631 310.498 104.329 307.523C104.032 304.543 103.848 301.129 103.772 297.281C103.772 296.423 103.754 295.776 103.716 295.343C103.64 286.334 103.489 281.004 103.263 279.35L103.603 278.601C104.463 278.71 104.895 279.697 104.895 281.558L105.065 295.83C105.065 296.835 105.159 298.737 105.347 301.537C105.574 304.05 105.687 305.952 105.687 307.243C105.687 311.337 107.095 313.383 109.912 313.383C111.641 313.383 112.747 309.615 113.232 302.078L113.289 301.005C113.553 291.131 113.685 283.826 113.685 279.088L113.628 278.601C113.591 278.457 113.572 278.295 113.572 278.115C113.572 277.718 113.893 277.52 114.534 277.52C114.979 277.52 115.26 277.628 115.373 277.844C115.449 278.205 115.486 278.834 115.486 279.728C115.486 282.458 115.373 284.288 115.147 285.219L115.203 285.543C115.203 286.012 115.147 286.731 115.034 287.698L114.921 289.853V290.394C114.958 290.538 114.977 290.718 114.977 290.935C114.906 291.796 114.873 292.618 114.873 293.405C114.836 293.657 114.817 294.054 114.817 294.595C114.741 298.003 114.666 300.964 114.59 303.475C114.477 306.601 114.025 309.24 113.232 311.391C112.407 313.694 111.075 314.844 109.233 314.844ZM127.653 313.275L127.597 311.282C127.559 310.712 127.54 310.065 127.54 309.344C127.54 308.99 127.559 308.686 127.597 308.434L127.653 307.46C127.653 307.106 127.578 306.676 127.427 306.171C127.427 303.768 127.24 299.299 126.87 292.765C126.493 286.443 126.286 282.151 126.248 279.891C123.921 279.891 122.362 279.837 121.57 279.728C120.82 279.548 120.447 279.264 120.447 278.872C120.636 278.475 120.99 278.277 121.513 278.277C122.638 278.277 124.272 278.349 126.418 278.493C128.365 278.674 130.002 278.764 131.322 278.764H132.501L133.68 278.71C134.359 278.71 134.698 278.942 134.698 279.404C134.698 279.62 134.576 279.791 134.331 279.918C134.085 280.044 133.793 280.107 133.453 280.107C132.704 280.107 131.919 280.071 131.096 279.999L128.672 279.891C128.521 279.891 128.445 279.945 128.445 280.053C128.408 280.161 128.389 280.504 128.389 281.081C128.389 284.561 128.615 289.839 129.068 296.912C129.476 304.232 129.681 309.493 129.681 312.689C129.681 312.937 129.521 313.167 129.2 313.383C128.884 313.599 128.577 313.708 128.276 313.708L127.653 313.275ZM146.526 315.051C142.131 315.051 139.933 308.447 139.933 295.235V293.351C139.933 283.339 141.284 278.331 143.989 278.331C144.177 278.331 144.441 278.385 144.781 278.493C145.981 278.89 147.162 279.14 148.327 279.242C149.044 279.386 149.756 280.087 150.468 281.342C151.26 282.636 151.85 284.342 152.241 286.463C152.637 288.579 152.835 290.752 152.835 292.981L152.722 293.243C152.722 294.433 152.741 295.494 152.779 296.425L152.835 299.652C152.835 301.487 152.76 303.139 152.609 304.611C152.383 306.836 152.008 308.756 151.487 310.372C151.147 311.341 150.76 312.148 150.326 312.797C149.897 313.442 149.364 313.978 148.723 314.411C148.124 314.837 147.393 315.051 146.526 315.051ZM146.299 313.491C147.764 313.491 148.855 312.506 149.572 310.534C150.282 308.521 150.713 306.475 150.864 304.395C151.015 302.238 151.091 300.513 151.091 299.22C151.091 297.791 150.977 295.674 150.751 292.873C150.562 289.749 150.468 287.63 150.468 286.517L150.242 286.084L150.355 285.814C150.355 284.234 149.895 282.87 148.978 281.721C148.058 280.574 146.943 279.999 145.63 279.999C143.899 279.999 142.866 280.79 142.527 282.37C142.451 282.906 142.376 283.677 142.3 284.687C142.3 287.344 142.187 289.156 141.961 290.123C141.961 290.664 141.907 291.509 141.8 292.656L141.687 295.181C141.687 295.974 141.706 296.675 141.744 297.281L141.8 299.436C141.8 301.127 141.947 303.065 142.244 305.251C142.47 306.869 142.734 308.235 143.036 309.353C143.338 310.467 143.767 311.415 144.328 312.202C144.894 313.063 145.549 313.491 146.299 313.491ZM170.868 314.303C170.567 314.303 170.416 313.82 170.416 312.851C170.265 310.37 170.189 307.243 170.189 303.475C170.189 301.108 170.208 298.99 170.246 297.119L170.303 290.772C170.303 288.045 170.227 284.669 170.076 280.648C169.737 280.359 169.567 279.999 169.567 279.566C169.567 279.314 169.727 279.057 170.048 278.791C170.369 278.52 170.661 278.385 170.925 278.385C171.22 278.385 171.5 278.529 171.764 278.818L172.387 279.296C172.613 279.404 173.042 279.512 173.679 279.62C174.32 279.728 174.773 279.837 175.037 279.945C175.596 280.233 176.343 280.79 177.282 281.613C178.187 282.478 178.81 283.017 179.149 283.226L179.093 283.335C179.13 283.551 179.409 284.02 179.932 284.741C180.347 285.277 180.687 285.778 180.951 286.247C181.547 287.901 181.847 290.038 181.847 292.656C181.847 293.121 181.828 293.531 181.79 293.892V295.614L181.734 296.154C181.734 296.835 181.847 297.372 182.073 297.768C181.847 298.918 181.566 301.09 181.234 304.286C181.121 305.22 180.932 306.207 180.668 307.253C180.404 308.294 180.083 309.153 179.706 309.831C178.73 311.593 177.098 313.083 174.811 314.303H170.868ZM174.585 312.743C174.849 312.454 175.089 312.22 175.311 312.04C175.311 312.04 175.443 311.95 175.707 311.769L176.16 311.391C178.786 309.132 180.102 304.825 180.102 298.471V297.444C180.064 297.162 180.045 296.858 180.045 296.533L179.819 291.088C179.706 289.01 179.048 286.857 177.848 284.633C177.287 283.522 176.527 282.618 175.565 281.919C174.608 281.216 173.606 280.864 172.557 280.864C172.104 280.864 171.878 284.186 171.878 290.826C171.878 298.508 172.104 305.204 172.557 310.913L172.5 311.932L172.727 312.04L172.84 312.743H174.585ZM200.5 314.519C199.934 314.519 199.576 314.456 199.425 314.33C199.274 314.203 199.161 313.87 199.085 313.329C198.751 310.71 198.548 309.078 198.472 308.434L198.189 306.279C197.359 306.099 196.419 306.008 195.369 306.008L193.342 305.9C192.441 305.792 191.785 305.738 191.37 305.738C191.144 305.738 191.012 305.828 190.974 306.008C190.974 306.117 190.955 306.171 190.918 306.171L190.804 307.243C190.767 307.893 190.562 309.186 190.191 311.12C190.003 312.094 189.776 312.849 189.512 313.383C189.211 313.996 188.928 314.303 188.663 314.303C188.442 314.303 188.201 314.203 187.937 314.005C187.673 313.807 187.541 313.599 187.541 313.383L187.654 313.058C188.326 310.512 188.89 307.981 189.343 305.467L190.022 302.132L190.691 298.039C190.691 298.039 190.899 296.855 191.314 294.487C191.502 293.52 191.842 291.958 192.332 289.799C192.853 287.36 193.172 285.692 193.285 284.795C193.323 284.687 193.398 284.024 193.511 282.803C193.662 281.439 193.794 280.432 193.907 279.782C194.021 278.852 194.134 278.313 194.247 278.169H194.643C194.749 278.205 194.879 278.223 195.03 278.223C195.482 278.223 195.822 278.115 196.048 277.898C196.312 277.898 196.544 277.979 196.746 278.142C196.954 278.304 197.058 278.493 197.058 278.71C197.058 280.429 197.19 282.404 197.454 284.633C197.605 285.782 197.718 286.731 197.793 287.482C198.208 292.116 199.26 300.804 200.953 313.545V313.708C200.953 314.068 200.802 314.339 200.5 314.519ZM197.906 304.827C197.529 299.659 196.815 292.03 195.765 281.937L192.719 296.317C191.856 300.446 191.427 303.049 191.427 304.124C191.427 304.304 192.139 304.467 193.568 304.611C194.994 304.755 196.251 304.827 197.34 304.827H197.906ZM223.994 314.898C222.938 314.898 221.827 314.503 220.665 313.717C219.5 312.923 218.675 312.026 218.184 311.021C217.736 310.083 217.279 307.122 216.807 302.132C216.336 297.144 216.1 293.43 216.1 290.989V288.131C216.062 287.308 216.043 286.391 216.043 285.381C216.043 283.519 216.156 281.671 216.383 279.837C216.534 278.942 216.732 278.173 216.977 277.529C217.222 276.879 217.566 276.248 218.014 275.635C218.844 274.416 220.085 273.607 221.74 273.21C222.601 273.001 223.556 272.895 224.607 272.895C225.324 272.895 226.045 273.093 226.776 273.49C227.512 273.882 227.88 274.346 227.88 274.887C227.88 275.279 227.578 275.473 226.974 275.473C226.748 275.473 226.317 275.351 225.682 275.103C225.116 274.851 224.607 274.725 224.154 274.725C223.103 274.725 222.155 274.932 221.306 275.347C220.462 275.757 219.799 276.302 219.316 276.988C218.901 277.56 218.543 278.349 218.241 279.359C217.944 280.364 217.76 281.367 217.684 282.37C217.571 283.267 217.515 284.342 217.515 285.597L217.571 288.618C217.609 289.479 217.628 290.409 217.628 291.412C217.628 293.889 217.887 297.534 218.411 302.348C218.939 307.158 219.443 309.939 219.929 310.696C220.382 311.377 221.047 311.895 221.929 312.256C222.815 312.617 223.744 312.797 224.72 312.797C226.449 312.797 227.762 312.274 228.663 311.228C229.002 310.802 229.361 310.588 229.738 310.588C230.077 310.588 230.247 310.838 230.247 311.337C230.247 311.986 230.04 312.554 229.625 313.04C229.21 313.523 228.646 313.888 227.936 314.14C226.734 314.645 225.421 314.898 223.994 314.898ZM243.876 314.681C243.423 314.212 242.933 312.975 242.404 310.967C241.881 308.954 241.395 306.691 240.943 304.178C240.645 302.129 240.216 300.101 239.65 298.093C239.198 296.296 238.766 295.397 238.358 295.397H238.189C237.359 295.397 236.944 295.65 236.944 296.154C236.944 298.74 237.094 302.67 237.396 307.947C237.547 311.181 237.717 313.065 237.906 313.599L237.453 314.519H236.661L236.217 314.086C235.614 297.498 235.312 286.19 235.312 280.161C235.312 279.764 235.34 279.444 235.397 279.196C235.453 278.944 235.576 278.71 235.765 278.493C235.916 278.241 236.175 278.115 236.547 278.115C238.464 278.115 240.004 278.565 241.169 279.467C242.331 280.364 242.914 281.653 242.914 283.335V287.265C242.914 287.95 242.678 288.868 242.206 290.015C241.74 291.164 241.226 292.222 240.66 293.188L239.933 294.541C240.348 296.369 241.164 299.662 242.386 304.422C243.605 309.177 244.272 311.697 244.385 311.986C244.423 312.022 244.47 312.112 244.527 312.256C244.583 312.4 244.701 312.617 244.885 312.905C245.149 313.406 245.281 313.834 245.281 314.194C245.281 314.699 245.076 314.952 244.668 314.952L243.876 314.681ZM237.227 294.054C237.943 294.054 238.58 293.716 239.141 293.035C239.707 292.35 240.16 291.471 240.499 290.394C241.096 288.201 241.395 286.458 241.395 285.165C241.395 284.342 241.348 283.664 241.254 283.127C241.159 282.586 240.999 282.009 240.773 281.396C240.325 280.141 239.257 279.512 237.566 279.512C237.377 279.512 237.227 279.665 237.113 279.972C237 280.278 236.944 280.594 236.944 280.918C236.944 283.323 236.981 285.494 237.057 287.428C237.094 289.37 237.113 291.543 237.113 293.946L237.227 294.054ZM254.64 314.032C253.772 314.032 253.263 313.852 253.112 313.491C252.923 313.491 252.774 313.509 252.668 313.545H252.216C251.386 313.545 250.86 313.369 250.641 313.013C250.641 312.761 250.787 312.545 251.084 312.364L251.367 312.094H252.998L253.225 311.877L253.338 311.391L253.395 310.751C253.395 308.558 253.338 306.601 253.225 304.881L253.112 302.889L252.998 298.958C252.998 297.559 253.055 295.458 253.168 292.656L253.281 286.409C253.281 283.682 253.187 281.599 252.998 280.161C252.664 280.053 252.102 279.999 251.31 279.999L250.688 280.053C250.466 280.089 250.226 280.107 249.961 280.107C249.245 280.107 248.886 279.8 248.886 279.187C248.886 279.05 249.056 278.908 249.396 278.764C249.735 278.619 250.018 278.547 250.244 278.547C251.671 278.547 253.097 278.619 254.526 278.764C255.387 278.8 256.248 278.96 257.111 279.242C257.79 279.458 258.129 279.764 258.129 280.161C258.129 280.233 258.073 280.377 257.959 280.594L256.667 280.702C256.403 280.486 255.856 280.377 255.026 280.377L254.753 280.54C254.859 280.864 254.913 281.815 254.913 283.389C254.913 285.764 254.894 287.901 254.856 289.799L254.753 296.209C254.753 297.827 254.823 299.783 254.97 302.078C255.083 304.699 255.139 306.673 255.139 308.001V308.704C255.102 308.952 255.083 309.272 255.083 309.669C255.083 310.498 255.139 311.001 255.253 311.174L255.196 311.282C255.196 311.643 255.611 311.823 256.441 311.823C256.773 311.823 257.054 311.805 257.28 311.769H258.129C259.216 311.769 259.761 312.022 259.761 312.527C259.761 312.851 259.648 313.113 259.421 313.311C259.195 313.505 258.896 313.599 258.525 313.599C258.186 313.599 257.884 313.563 257.62 313.491C257.318 313.455 257 313.437 256.667 313.437C256.441 313.437 256.101 313.527 255.649 313.708C255.196 313.924 254.859 314.032 254.64 314.032ZM276.044 314.519C275.479 314.519 275.12 314.456 274.969 314.33C274.818 314.203 274.705 313.87 274.63 313.329C274.295 310.71 274.092 309.078 274.017 308.434L273.734 306.279C272.904 306.099 271.963 306.008 270.914 306.008L268.886 305.9C267.985 305.792 267.33 305.738 266.915 305.738C266.688 305.738 266.556 305.828 266.519 306.008C266.519 306.117 266.5 306.171 266.462 306.171L266.349 307.243C266.311 307.893 266.106 309.186 265.736 311.12C265.547 312.094 265.321 312.849 265.057 313.383C264.755 313.996 264.472 314.303 264.208 314.303C263.986 314.303 263.746 314.203 263.482 314.005C263.218 313.807 263.086 313.599 263.086 313.383L263.199 313.058C263.871 310.512 264.434 307.981 264.887 305.467L265.566 302.132L266.236 298.039C266.236 298.039 266.443 296.855 266.858 294.487C267.047 293.52 267.386 291.958 267.877 289.799C268.398 287.36 268.716 285.692 268.829 284.795C268.867 284.687 268.943 284.024 269.056 282.803C269.207 281.439 269.339 280.432 269.452 279.782C269.565 278.852 269.678 278.313 269.791 278.169H270.187C270.294 278.205 270.423 278.223 270.574 278.223C271.027 278.223 271.366 278.115 271.593 277.898C271.857 277.898 272.088 277.979 272.291 278.142C272.498 278.304 272.602 278.493 272.602 278.71C272.602 280.429 272.734 282.404 272.998 284.633C273.149 285.782 273.262 286.731 273.338 287.482C273.753 292.116 274.804 300.804 276.497 313.545V313.708C276.497 314.068 276.346 314.339 276.044 314.519ZM273.451 304.827C273.073 299.659 272.359 292.03 271.31 281.937L268.263 296.317C267.4 300.446 266.971 303.049 266.971 304.124C266.971 304.304 267.683 304.467 269.112 304.611C270.539 304.755 271.796 304.827 272.885 304.827H273.451ZM296.94 314.249C296.638 314.249 296.421 314.14 296.289 313.924C296.162 313.708 296.044 313.388 295.931 312.959C295.893 312.671 295.818 312.418 295.704 312.202L295.761 312.04C295.459 310.352 294.82 308.287 293.846 305.846L292.828 303.051C292.752 302.979 292.396 302.064 291.762 300.302L291.309 299.012C287.926 289.03 285.804 283.628 284.943 282.803C284.641 283.772 284.49 285.027 284.49 286.571C284.49 287.396 284.509 288.113 284.547 288.726L284.603 290.826L284.547 292.116C284.509 292.512 284.49 292.943 284.49 293.405C284.49 294.198 284.528 294.881 284.604 295.451C284.679 296.601 284.717 297.173 284.717 297.173H284.547C284.547 303.173 284.679 306.475 284.943 307.081V311.932C285.094 312.22 285.169 312.596 285.169 313.058C285.169 313.347 285.066 313.599 284.858 313.816C284.651 314.032 284.396 314.14 284.094 314.14C283.307 314.14 282.915 313.171 282.915 311.228L283.028 309.506C283.104 308.972 283.142 308.379 283.142 307.73C283.142 306.006 283.085 303.421 282.972 299.977C282.859 296.533 282.802 293.95 282.802 292.224C282.802 291.185 282.859 289.587 282.972 287.428C283.085 285.313 283.142 283.736 283.142 282.694V281.991C283.142 280.231 283.476 279.084 284.151 278.547L284.321 278.71L284.886 278.601C285.037 278.637 285.207 278.746 285.396 278.926C285.547 279.066 285.622 279.223 285.622 279.404L285.735 279.728C285.735 279.8 285.745 279.864 285.764 279.918C285.782 279.972 285.792 279.999 285.792 279.999C286.388 282.548 287.74 286.12 289.848 290.718C291.984 295.564 293.318 298.776 293.846 300.356C294.217 301.613 294.516 302.725 294.742 303.691C295.459 306.745 296.303 309.098 297.28 310.751L297.393 310.588C298.253 302.619 298.685 292.835 298.685 281.234L298.628 280.594C298.591 280.414 298.572 280.179 298.572 279.891C298.572 279.14 298.836 278.764 299.364 278.764C299.704 278.764 299.991 278.926 300.232 279.251C300.477 279.571 300.6 279.927 300.6 280.323V283.93L300.326 284.362C300.326 287.77 300.119 293.373 299.704 301.167C299.289 308.956 298.892 313.191 298.515 313.87L297.563 314.086V314.14L297.506 314.086L296.94 314.249ZM312.66 314.411C311.948 314.194 311.34 313.892 310.83 313.5C310.321 313.104 309.842 312.509 309.397 311.715C308.605 310.279 308.133 308.215 307.982 305.522C307.907 304.302 307.869 303.227 307.869 302.294V296.154C307.869 293.824 307.944 291.561 308.095 289.366C308.208 287.757 308.378 286.395 308.605 285.282C308.831 284.164 309.185 283.051 309.67 281.937C310.198 280.79 310.783 279.981 311.425 279.512C311.682 279.296 312.189 279.048 312.943 278.764C313.433 278.583 313.9 278.385 314.348 278.169H316.772C316.81 278.205 316.867 278.223 316.942 278.223L317.225 278.277L317.451 278.439C317.565 278.547 317.621 278.619 317.621 278.655C317.659 278.728 317.678 278.836 317.678 278.98L316.942 279.782H314.575C313.863 279.782 313.217 280.116 312.632 280.783C312.047 281.446 311.606 282.277 311.311 283.28C311.01 284.182 310.764 285.244 310.576 286.463C310.387 287.684 310.274 288.742 310.236 289.636C310.161 290.786 310.123 291.575 310.123 292.007L310.01 292.278C310.01 294.286 309.972 296.098 309.897 297.714L309.783 303.15C309.783 304.733 309.897 306.186 310.123 307.514C310.312 308.952 310.854 310.243 311.755 311.391C312.622 312.54 313.957 313.113 315.763 313.113C316.322 313.113 316.791 312.955 317.168 312.635C317.727 312.635 318.008 312.831 318.008 313.221C318.008 313.473 317.772 313.771 317.3 314.113C316.834 314.456 316.36 314.717 315.876 314.898H314.009L312.66 314.411ZM312.943 325.824C312.339 325.824 311.783 325.689 311.274 325.419C310.769 325.148 310.519 324.799 310.519 324.373C310.519 324.012 310.727 323.832 311.142 323.832C311.292 323.832 311.59 323.922 312.038 324.102C312.49 324.283 312.792 324.373 312.943 324.373C313.577 324.373 314.103 324.003 314.518 323.264C314.933 322.529 315.141 321.661 315.141 320.658C315.141 319.473 314.858 318.666 314.292 318.233L313.566 318.342L312.773 318.45C312.207 318.45 311.7 318.089 311.255 317.368C311.549 316.615 311.698 315.576 311.698 314.249V313.653L313.339 313.437C313.188 314.512 313.113 315.43 313.113 316.187C315.853 316.331 317.225 318.125 317.225 321.569C317.225 322.146 317.027 322.764 316.631 323.426C316.235 324.093 315.697 324.657 315.018 325.121C314.344 325.59 313.653 325.824 312.943 325.824ZM335.647 314.519C335.081 314.519 334.723 314.456 334.572 314.33C334.421 314.203 334.308 313.87 334.232 313.329C333.898 310.71 333.695 309.078 333.619 308.434L333.336 306.279C332.506 306.099 331.566 306.008 330.516 306.008L328.489 305.9C327.588 305.792 326.932 305.738 326.517 305.738C326.291 305.738 326.159 305.828 326.121 306.008C326.121 306.117 326.102 306.171 326.065 306.171L325.952 307.243C325.914 307.893 325.709 309.186 325.338 311.12C325.15 312.094 324.923 312.849 324.659 313.383C324.358 313.996 324.075 314.303 323.811 314.303C323.589 314.303 323.348 314.203 323.084 314.005C322.82 313.807 322.688 313.599 322.688 313.383L322.801 313.058C323.473 310.512 324.037 307.981 324.49 305.467L325.169 302.132L325.838 298.039C325.838 298.039 326.046 296.855 326.461 294.487C326.649 293.52 326.989 291.958 327.479 289.799C328.001 287.36 328.319 285.692 328.432 284.795C328.47 284.687 328.545 284.024 328.658 282.803C328.809 281.439 328.941 280.432 329.055 279.782C329.168 278.852 329.281 278.313 329.394 278.169H329.79C329.896 278.205 330.026 278.223 330.177 278.223C330.63 278.223 330.969 278.115 331.195 277.898C331.46 277.898 331.691 277.979 331.893 278.142C332.101 278.304 332.205 278.493 332.205 278.71C332.205 280.429 332.337 282.404 332.601 284.633C332.752 285.782 332.865 286.731 332.94 287.482C333.355 292.116 334.407 300.804 336.1 313.545V313.708C336.1 314.068 335.949 314.339 335.647 314.519ZM333.053 304.827C332.676 299.659 331.962 292.03 330.913 281.937L327.866 296.317C327.003 300.446 326.574 303.049 326.574 304.124C326.574 304.304 327.286 304.467 328.715 304.611C330.141 304.755 331.398 304.827 332.488 304.827H333.053ZM352.718 314.357C352.266 314.357 352.039 313.73 352.039 312.472C352.039 310.676 352.02 309.078 351.983 307.676L351.869 302.835V298.471C351.832 297.18 351.813 295.726 351.813 294.108C351.813 289.3 351.719 284.849 351.53 280.756L351.473 278.818C351.36 276.697 351.304 274.973 351.304 273.643L351.473 273.427C351.511 273.354 351.587 273.264 351.7 273.156C351.737 273.055 351.832 272.985 351.983 272.949C352.058 272.913 352.19 272.895 352.379 272.895C353.692 272.895 354.883 273.183 355.953 273.76C357.021 274.333 357.896 275.119 358.575 276.122C359.889 278.101 360.547 280.346 360.547 282.857C360.547 284.468 360.273 286.118 359.726 287.806C359.184 289.497 358.368 291.022 357.274 292.386C356.147 293.86 354.89 294.721 353.501 294.973L353.614 300.951L353.728 303.854C353.878 307.304 353.954 310.25 353.954 312.689C353.954 313.261 353.869 313.681 353.699 313.951C353.529 314.221 353.202 314.357 352.718 314.357ZM353.501 292.981C353.841 292.945 354.18 292.801 354.52 292.548C354.595 292.512 354.727 292.368 354.916 292.116C354.916 292.116 355.043 291.989 355.302 291.737C357.748 289.406 358.971 286.481 358.971 282.965C358.971 280.952 358.556 279.084 357.726 277.357C357.278 276.462 356.623 275.757 355.755 275.239C354.892 274.716 353.881 274.454 352.718 274.454C352.718 276.499 352.827 279.566 353.048 283.659C353.275 287.752 353.388 290.824 353.388 292.873L353.501 292.981ZM375.981 314.681C375.528 314.212 375.038 312.975 374.51 310.967C373.986 308.954 373.501 306.691 373.048 304.178C372.751 302.129 372.322 300.101 371.756 298.093C371.303 296.296 370.872 295.397 370.464 295.397H370.294C369.464 295.397 369.049 295.65 369.049 296.154C369.049 298.74 369.2 302.67 369.502 307.947C369.653 311.181 369.822 313.065 370.011 313.599L369.558 314.519H368.766L368.323 314.086C367.719 297.498 367.417 286.19 367.417 280.161C367.417 279.764 367.446 279.444 367.502 279.196C367.559 278.944 367.681 278.71 367.87 278.493C368.021 278.241 368.28 278.115 368.653 278.115C370.57 278.115 372.11 278.565 373.274 279.467C374.437 280.364 375.019 281.653 375.019 283.335V287.265C375.019 287.95 374.783 288.868 374.312 290.015C373.845 291.164 373.331 292.222 372.765 293.188L372.039 294.541C372.454 296.369 373.27 299.662 374.491 304.422C375.71 309.177 376.377 311.697 376.49 311.986C376.528 312.022 376.575 312.112 376.632 312.256C376.689 312.4 376.806 312.617 376.99 312.905C377.254 313.406 377.386 313.834 377.386 314.194C377.386 314.699 377.181 314.952 376.773 314.952L375.981 314.681ZM369.332 294.054C370.049 294.054 370.685 293.716 371.247 293.035C371.812 292.35 372.265 291.471 372.605 290.394C373.201 288.201 373.501 286.458 373.501 285.165C373.501 284.342 373.454 283.664 373.359 283.127C373.265 282.586 373.105 282.009 372.878 281.396C372.43 280.141 371.362 279.512 369.671 279.512C369.483 279.512 369.332 279.665 369.219 279.972C369.106 280.278 369.049 280.594 369.049 280.918C369.049 283.323 369.087 285.494 369.162 287.428C369.2 289.37 369.219 291.543 369.219 293.946L369.332 294.054ZM384.771 314.735C384.092 314.735 383.715 314.357 383.64 313.599V312.905C383.677 312.725 383.696 312.509 383.696 312.256L383.47 312.04C383.772 311.289 383.923 310.552 383.923 309.831C383.923 309.008 383.866 307.825 383.753 306.279L383.64 302.727C383.64 300.93 383.696 298.237 383.809 294.649C383.96 291.453 384.036 288.742 384.036 286.517L383.923 283.28C383.847 282.314 383.809 281.238 383.809 280.053C383.809 279.512 383.941 279.129 384.205 278.899C384.47 278.665 384.88 278.547 385.441 278.547C385.818 278.547 386.12 278.655 386.346 278.872C386.422 278.908 386.964 278.98 387.978 279.088C388.914 279.192 389.723 279.35 390.402 279.566C391.112 279.782 391.468 280.053 391.468 280.377C391.468 280.738 391.112 281.096 390.402 281.45C388.256 280.772 386.735 280.432 385.837 280.432L385.554 280.756C385.592 281.076 385.611 281.847 385.611 283.073C385.611 284.612 385.573 285.992 385.498 287.211C385.46 288.469 385.441 289.868 385.441 291.412C385.441 292.422 385.705 292.927 386.233 292.927L387.129 292.873C387.431 292.837 387.752 292.819 388.091 292.819C389.556 292.819 390.289 293.141 390.289 293.783C390.289 294.18 390.194 294.514 390.006 294.784C389.817 295.05 389.534 295.181 389.157 295.181C388.596 295.181 388.167 295.041 387.865 294.757L386.063 294.487H385.781L385.498 294.757V294.919C385.573 295.528 385.611 296.943 385.611 299.166C385.611 300.568 385.592 301.843 385.554 302.997L385.498 306.82C385.498 308.222 385.554 309.655 385.667 311.12C385.705 311.95 385.894 312.5 386.233 312.77C386.573 313.036 387.191 313.167 388.091 313.167L389.1 313.113C389.44 313.076 389.817 313.058 390.232 313.058C391.319 313.058 391.864 313.293 391.864 313.762C391.864 314.411 391.036 314.735 389.383 314.735H384.771ZM401.835 313.275L401.779 311.282C401.741 310.712 401.722 310.065 401.722 309.344C401.722 308.99 401.741 308.686 401.779 308.434L401.835 307.46C401.835 307.106 401.76 306.676 401.609 306.171C401.609 303.768 401.423 299.299 401.053 292.765C400.675 286.443 400.468 282.151 400.43 279.891C398.103 279.891 396.544 279.837 395.752 279.728C395.002 279.548 394.63 279.264 394.63 278.872C394.818 278.475 395.172 278.277 395.695 278.277C396.82 278.277 398.454 278.349 400.6 278.493C402.548 278.674 404.184 278.764 405.504 278.764H406.683L407.862 278.71C408.541 278.71 408.881 278.942 408.881 279.404C408.881 279.62 408.758 279.791 408.513 279.918C408.268 280.044 407.975 280.107 407.636 280.107C406.886 280.107 406.101 280.071 405.278 279.999L402.854 279.891C402.703 279.891 402.628 279.945 402.628 280.053C402.59 280.161 402.571 280.504 402.571 281.081C402.571 284.561 402.797 289.839 403.25 296.912C403.658 304.232 403.863 309.493 403.863 312.689C403.863 312.937 403.703 313.167 403.382 313.383C403.066 313.599 402.76 313.708 402.458 313.708L401.835 313.275ZM425.952 314.519C425.386 314.519 425.028 314.456 424.877 314.33C424.726 314.203 424.613 313.87 424.537 313.329C424.202 310.71 424 309.078 423.924 308.434L423.641 306.279C422.811 306.099 421.87 306.008 420.821 306.008L418.793 305.9C417.893 305.792 417.237 305.738 416.822 305.738C416.596 305.738 416.464 305.828 416.426 306.008C416.426 306.117 416.407 306.171 416.369 306.171L416.256 307.243C416.219 307.893 416.013 309.186 415.643 311.12C415.455 312.094 415.228 312.849 414.964 313.383C414.662 313.996 414.379 314.303 414.115 314.303C413.894 314.303 413.653 314.203 413.389 314.005C413.125 313.807 412.993 313.599 412.993 313.383L413.106 313.058C413.778 310.512 414.342 307.981 414.794 305.467L415.473 302.132L416.143 298.039C416.143 298.039 416.351 296.855 416.766 294.487C416.954 293.52 417.294 291.958 417.784 289.799C418.305 287.36 418.624 285.692 418.737 284.795C418.775 284.687 418.85 284.024 418.963 282.803C419.114 281.439 419.246 280.432 419.359 279.782C419.472 278.852 419.586 278.313 419.699 278.169H420.095C420.201 278.205 420.331 278.223 420.482 278.223C420.934 278.223 421.274 278.115 421.5 277.898C421.764 277.898 421.995 277.979 422.198 278.142C422.406 278.304 422.509 278.493 422.509 278.71C422.509 280.429 422.641 282.404 422.906 284.633C423.056 285.782 423.17 286.731 423.245 287.482C423.66 292.116 424.712 300.804 426.405 313.545V313.708C426.405 314.068 426.254 314.339 425.952 314.519ZM423.358 304.827C422.981 299.659 422.267 292.03 421.217 281.937L418.171 296.317C417.308 300.446 416.879 303.049 416.879 304.124C416.879 304.304 417.591 304.467 419.02 304.611C420.446 304.755 421.703 304.827 422.792 304.827H423.358Z" fill="black"/>
</svg>
