<svg width="32" height="32" viewBox="0 0 32 32" fill="none" xmlns="http://www.w3.org/2000/svg">
<path d="M12.2307 19.7733C11.7354 19.2781 11.3425 18.6901 11.0745 18.043C10.8065 17.3959 10.6685 16.7024 10.6685 16.002C10.6685 15.3016 10.8065 14.608 11.0745 13.961C11.3425 13.3139 11.7354 12.7259 12.2307 12.2307C12.7259 11.7354 13.3139 11.3425 13.961 11.0745C14.608 10.8065 15.3016 10.6685 16.002 10.6685C16.7024 10.6685 17.3959 10.8065 18.043 11.0745C18.6901 11.3425 19.2781 11.7354 19.7733 12.2307" stroke="#FFFF00" stroke-width="2" stroke-linecap="round" stroke-linejoin="round"/>
<path d="M15.0587 16.9427L15.2907 17.272C16.6096 19.0553 18.4839 20.3495 20.6189 20.951C22.7538 21.5525 25.0281 21.4272 27.084 20.5947C26.3274 22.4153 25.1338 24.0215 23.6088 25.2712C22.0838 26.5209 20.2744 27.3755 18.3406 27.7596C16.4068 28.1437 14.4081 28.0454 12.5213 27.4734C10.6345 26.9014 8.91765 25.8733 7.52267 24.48M4 16H5.33333M16 4V5.33333M7.46667 7.46667L8.4 8.4M4 28L28 4" stroke="#FFFF00" stroke-width="2" stroke-linecap="round" stroke-linejoin="round"/>
</svg>
