<svg width="43" height="28" viewBox="0 0 43 28" fill="none" xmlns="http://www.w3.org/2000/svg">
<path d="M18 4V6H43C42.9651 5.35503 42.89 4.53965 42.6214 4" fill="#EC1C24"/>
<path d="M41.8032 2H18V4H43C42.7285 3.25385 42.3247 2.57337 41.8032 2Z" fill="#E6E7E8"/>
<path d="M36.0899 0H18V2H41C39.9217 0.763314 38.147 0 36.0899 0Z" fill="#EC1C24"/>
<path d="M42.977 6H18V9H43V7.0003C43 6.82189 42.9914 6.64793 42.9875 6.47308C42.9849 6.42515 42.9809 6.30178 42.977 6Z" fill="#E6E7E8"/>
<path d="M18 11H43V9H18V11Z" fill="#EC1C24"/>
<path d="M18 13H43V11H18V13Z" fill="#E6E7E8"/>
<path d="M18 13H43V15H18V13Z" fill="#EC1C24"/>
<path d="M0 15V17H43V15H17.4688H0Z" fill="#E6E7E8"/>
<path d="M0 17H43V19H0V17Z" fill="#EC1C24"/>
<path d="M0.00335937 20.8453C0.00335937 20.8453 -0.0026875 21.5722 0.0134375 22H42.9866C43.0054 21.5615 42.9966 20.8453 42.9966 20.8453L43 19H0L0.00335937 20.8453Z" fill="#E6E7E8"/>
<path d="M7.0418 28H35.9648C38.0637 28 39.8082 27.3256 41 26H2C3.23054 27.3547 5.00799 28 7.03851 28" fill="#EC1C24"/>
<path d="M2.15701 26H41.8363C42.3653 25.4054 42.7603 24.7264 43 24H1C1.24417 24.7242 1.63757 25.4023 2.16035 26" fill="#E6E7E8"/>
<path d="M0.389931 24H42.6101C42.8302 23.3494 42.9611 22.678 43 22H0C0.0665572 22.684 0.128408 23.2006 0.389931 24Z" fill="#EC1C24"/>
<path d="M18 0H6.92308C2.33515 0 0 3.12236 0 6.9738V15H18V0Z" fill="#176496"/>
<path d="M2.25134 4.11252L2.60741 3.84799L2.96283 4.11252L2.82472 3.68726L3.17883 3.42716H2.7416L2.60611 3L2.47127 3.42716H2.03469L2.39011 3.68726L2.25134 4.11252ZM4.60377 4.11252L4.95984 3.84799L5.31526 4.11252L5.1778 3.68726L5.53125 3.42716H5.09467L4.95918 3L4.82435 3.42716H4.38646L4.74188 3.68726L4.60377 4.11252ZM7.19903 4.11252L7.55444 3.84799L7.91051 4.11252L7.77241 3.68726L8.12586 3.42716H7.6919L7.55444 3L7.41895 3.42716H6.98499L7.33648 3.68726L7.19903 4.11252ZM9.7753 4.11252L10.1307 3.84799L10.4868 4.11252L10.3493 3.68726L10.7028 3.42716H10.2642L10.1307 3L9.99589 3.42716H9.55865L9.91341 3.68726L9.7753 4.11252ZM12.3607 4.11252L12.7168 3.84799L13.0722 4.11252L12.9348 3.68726L13.2889 3.42716H12.851L12.7162 3L12.5813 3.42716H12.1447L12.4982 3.68726L12.3607 4.11252ZM3.50348 5.22314L3.8589 4.95924L4.21432 5.22314L4.07752 4.79851L4.43097 4.53841H3.99374L3.85824 4.11188L3.72537 4.53841H3.28683L3.64094 4.79851L3.50348 5.22314ZM5.85656 5.22314L6.21198 4.95924L6.56739 5.22314L6.42994 4.79851L6.78339 4.53841H6.34354L6.21198 4.11188L6.07649 4.53841H5.63991L5.99402 4.79851L5.85656 5.22314ZM8.45182 5.22314L8.80658 4.95924L9.162 5.22314L9.02455 4.79851L9.37865 4.53841H8.94207L8.80658 4.11188L8.67109 4.53841H8.23386L8.58797 4.79851L8.45182 5.22314ZM11.0268 5.22314L11.3829 4.95924L11.7389 5.22314L11.5995 4.79851L11.9543 4.53841H11.5177L11.3822 4.11188L11.248 4.53841H10.8108L11.1649 4.79851L11.0268 5.22314ZM13.6155 5.22314L13.9683 4.95924L14.3237 5.22314L14.185 4.79851L14.5397 4.53841H14.1038L13.9676 4.11188L13.8335 4.53841H13.3962L13.7503 4.79851L13.6155 5.22314ZM15.0732 4.11252L15.4286 3.84799L15.7847 4.11252L15.6465 3.68726L16 3.42716H15.566L15.4279 3L15.2931 3.42716H14.8526L15.2106 3.68726L15.0732 4.11252ZM2.21665 13L2.57272 12.7386L2.92814 13L2.79069 12.5785L3.14414 12.3178L2.70756 12.3191L2.57142 11.8925L2.43789 12.3191L2 12.3178L2.35411 12.5785L2.21665 13ZM4.56973 13L4.92515 12.7386L5.28122 13L5.14311 12.5785L5.49656 12.3178L5.06064 12.3191L4.92449 11.8925L4.79031 12.3191L4.35373 12.3178L4.70719 12.5785L4.56973 13ZM7.16499 13L7.52041 12.7386L7.87648 13L7.73837 12.5785L8.09182 12.3178L7.65262 12.3191L7.51975 11.8925L7.38492 12.3191L6.94834 12.3178L7.30244 12.5785L7.16499 13ZM9.74127 13L10.0967 12.7386L10.4521 13L10.3166 12.5785L10.6681 12.3178L10.2309 12.3191L10.096 11.8925L9.96119 12.3191L9.52462 12.3178L9.87807 12.5785L9.74127 13ZM12.3261 13L12.6821 12.7386L13.0382 13L12.9021 12.5785L13.2535 12.3178L12.817 12.3191L12.6815 11.8925L12.5473 12.3191L12.1101 12.3178L12.4635 12.5785L12.3261 13ZM15.0385 13L15.3939 12.7386L15.75 13L15.6119 12.5785L15.966 12.3178L15.5268 12.3191L15.3932 11.8925L15.2584 12.3191L14.8199 12.3178L15.1759 12.5785L15.0385 13ZM2.25134 6.33502L2.60741 6.0705L2.96283 6.33502L2.82472 5.90976L3.17883 5.64966L2.7416 5.65093L2.60611 5.22314L2.47127 5.65093L2.03469 5.64966L2.39011 5.90976L2.25134 6.33502ZM4.60377 6.33502L4.95984 6.0705L5.31526 6.33502L5.1778 5.90976L5.53125 5.64966L5.09467 5.65093L4.95918 5.22314L4.82435 5.65093L4.38646 5.64966L4.74188 5.90976L4.60377 6.33502ZM7.19903 6.33502L7.55444 6.0705L7.91051 6.33502L7.77241 5.90976L8.12586 5.64966L7.6919 5.65093L7.55444 5.22314L7.41895 5.65093L6.98499 5.64966L7.33648 5.90976L7.19903 6.33502ZM9.7753 6.33502L10.1307 6.0705L10.4868 6.33502L10.3493 5.90976L10.7028 5.64966L10.2642 5.65093L10.1307 5.22314L9.99589 5.65093L9.55865 5.64966L9.91341 5.90976L9.7753 6.33502ZM12.3607 6.33502L12.7168 6.0705L13.0722 6.33502L12.9348 5.90976L13.2889 5.64966L12.851 5.65093L12.7162 5.22314L12.5813 5.65093L12.1447 5.64966L12.4982 5.90976L12.3607 6.33502ZM3.50348 7.44627L3.8589 7.18238L4.21432 7.44627L4.07752 7.02164L4.43097 6.76028H3.99374L3.85824 6.33502L3.72537 6.76028H3.28683L3.64094 7.02164L3.50348 7.44627ZM5.85656 7.44627L6.21198 7.18238L6.56739 7.44627L6.42994 7.02164L6.78339 6.76028H6.34354L6.21198 6.33502L6.07649 6.76028H5.63991L5.99402 7.02164L5.85656 7.44627ZM8.45182 7.44627L8.80658 7.18238L9.162 7.44627L9.02455 7.02164L9.37865 6.76028H8.94207L8.80658 6.33502L8.67109 6.76028H8.23386L8.58797 7.02164L8.45182 7.44627ZM11.0268 7.44627L11.3829 7.18238L11.7389 7.44627L11.5995 7.02164L11.9543 6.76028H11.5177L11.3822 6.33502L11.248 6.76028H10.8108L11.1649 7.02164L11.0268 7.44627ZM13.6155 7.44627L13.9683 7.18238L14.3237 7.44627L14.185 7.02164L14.5397 6.76028H14.1038L13.9676 6.33502L13.8335 6.76028H13.3962L13.7503 7.02164L13.6155 7.44627ZM15.0732 6.33502L15.4286 6.0705L15.7847 6.33502L15.6465 5.90976L16 5.64966L15.566 5.65093L15.4279 5.22314L15.2931 5.65093L14.8526 5.64966L15.2106 5.90976L15.0732 6.33502ZM2.21665 8.55752L2.57272 8.29363L2.92814 8.55752L2.79003 8.13353L3.14414 7.8728L2.70691 7.87407L2.57142 7.44627L2.43789 7.87407L2 7.8728L2.35411 8.13353L2.21665 8.55752ZM4.56973 8.55752L4.92515 8.29363L5.28122 8.55752L5.14311 8.13353L5.49656 7.8728L5.06064 7.87407L4.92449 7.44627L4.79031 7.87407L4.35373 7.8728L4.70653 8.13353L4.56973 8.55752ZM7.16499 8.55752L7.52041 8.29363L7.87582 8.55752L7.73837 8.13353L8.09182 7.8728L7.65262 7.87407L7.51975 7.44627L7.38492 7.87407L6.94834 7.8728L7.30244 8.13353L7.16499 8.55752ZM9.74127 8.55752L10.096 8.29363L10.4521 8.55752L10.3166 8.13353L10.6681 7.8728L10.2309 7.87407L10.096 7.44627L9.96119 7.87407L9.52462 7.8728L9.87807 8.13353L9.74127 8.55752ZM12.3261 8.55752L12.6821 8.29363L13.0375 8.55752L12.9021 8.13353L13.2535 7.8728L12.8163 7.87407L12.6815 7.44627L12.5473 7.87407L12.1101 7.8728L12.4635 8.13353L12.3261 8.55752ZM3.46879 9.66878L3.82421 9.40552L4.17962 9.66878L4.04283 9.24731L4.39562 8.98532H3.95839L3.82355 8.55752L3.68937 8.98532H3.25214L3.60625 9.24731L3.46879 9.66878ZM5.82187 9.66878L6.17729 9.40552L6.5327 9.66878L6.39525 9.24731L6.7487 8.98532H6.31081L6.17663 8.55752L6.0418 8.98532H5.60456L5.95932 9.24731L5.82187 9.66878ZM8.41778 9.66878L8.77189 9.40552L9.12796 9.66878L8.98789 9.24731L9.34396 8.98532H8.90738L8.77189 8.55752L8.63706 8.98532H8.19982L8.55393 9.24731L8.41778 9.66878ZM10.9908 9.66878L11.3482 9.40552L11.7042 9.66878L11.5668 9.24731L11.9196 8.98532H11.483L11.3475 8.55752L11.2133 8.98532H10.7761L11.1302 9.24731L10.9908 9.66878ZM13.5762 9.66878L13.9336 9.40552L14.2897 9.66878L14.1516 9.24731L14.5063 8.98532H14.0698L13.9336 8.55752L13.7988 8.98532H13.3615L13.7156 9.24731L13.5762 9.66878ZM15.0385 8.55752L15.3939 8.29363L15.7493 8.55752L15.6119 8.13353L15.966 7.8728L15.5268 7.87407L15.3932 7.44627L15.2584 7.87407L14.8199 7.8728L15.1759 8.13353L15.0385 8.55752ZM2.21665 10.7807L2.57272 10.5193L2.92814 10.7807L2.79003 10.356L3.14414 10.0953L2.70691 10.0966L2.57142 9.66878L2.43789 10.0966L2 10.0953L2.35411 10.356L2.21665 10.7807ZM4.56973 10.7807L4.92515 10.5193L5.28122 10.7807L5.14311 10.356L5.49656 10.0953L5.06064 10.0966L4.92449 9.66878L4.79031 10.0966L4.35373 10.0953L4.70653 10.356L4.56973 10.7807ZM7.16499 10.7807L7.52041 10.5193L7.87582 10.7807L7.73837 10.356L8.09182 10.0953L7.65262 10.0966L7.51975 9.66878L7.38492 10.0966L6.94834 10.0953L7.30244 10.356L7.16499 10.7807ZM9.74127 10.7807L10.096 10.5193L10.4521 10.7807L10.3166 10.356L10.6681 10.0953L10.2309 10.0966L10.096 9.66878L9.96119 10.0966L9.52462 10.0953L9.87807 10.356L9.74127 10.7807ZM12.3261 10.7807L12.6821 10.5193L13.0375 10.7807L12.9021 10.356L13.2535 10.0953L12.8163 10.0966L12.6815 9.66878L12.5473 10.0966L12.1101 10.0953L12.4635 10.356L12.3261 10.7807ZM3.46879 11.8925L3.82421 11.628L4.17962 11.8925L4.04283 11.4673L4.39562 11.2091H3.95839L3.82355 10.7807L3.68937 11.2091H3.25214L3.60625 11.4673L3.46879 11.8925ZM5.82187 11.8925L6.17729 11.628L6.5327 11.8925L6.39525 11.4673L6.7487 11.2091H6.31081L6.17663 10.7807L6.0418 11.2091H5.60456L5.95932 11.4673L5.82187 11.8925ZM8.41778 11.8925L8.77189 11.628L9.12796 11.8925L8.98789 11.4673L9.34396 11.2091H8.90738L8.77189 10.7807L8.63706 11.2091H8.19982L8.55393 11.4673L8.41778 11.8925ZM10.9908 11.8925L11.3482 11.628L11.7042 11.8925L11.5668 11.4673L11.9196 11.2091H11.483L11.3475 10.7807L11.2133 11.2091H10.7761L11.1302 11.4673L10.9908 11.8925ZM13.5762 11.8925L13.9336 11.628L14.2897 11.8925L14.1516 11.4673L14.5063 11.2091H14.0698L13.9336 10.7807L13.7988 11.2091H13.3615L13.7156 11.4673L13.5762 11.8925ZM15.0385 10.7807L15.3939 10.5193L15.7493 10.7807L15.6119 10.356L15.966 10.0953L15.5268 10.0966L15.3932 9.66878L15.2584 10.0966L14.8199 10.0953L15.1759 10.356L15.0385 10.7807Z" fill="white"/>
</svg>
