<svg width="44" height="44" viewBox="0 0 44 44" fill="none" xmlns="http://www.w3.org/2000/svg">
<path fill-rule="evenodd" clip-rule="evenodd" d="M35.6409 8.34453C33.8611 6.56396 31.7468 5.15299 29.4196 4.19285C27.0924 3.2327 24.5983 2.74234 22.0808 2.75C11.5156 2.75 2.915 11.3077 2.9107 21.8281C2.90599 25.1781 3.78903 28.4695 5.46992 31.3672L2.75 41.25L12.9121 38.5971C15.725 40.1211 18.8739 40.9186 22.073 40.9174H22.0808C32.6451 40.9174 41.2448 32.3589 41.25 21.8393C41.2564 19.3304 40.7638 16.8453 39.8008 14.5285C38.8379 12.2118 37.4238 10.1097 35.6409 8.34453ZM22.0808 37.6973H22.0739C19.222 37.6982 16.4219 36.935 13.9648 35.487L13.383 35.1433L7.35281 36.7177L8.96242 30.8662L8.58344 30.2646C6.98877 27.7399 6.14388 24.8143 6.14711 21.8281C6.14711 13.0857 13.298 5.97265 22.0868 5.97265C26.3029 5.96512 30.3493 7.63257 33.3361 10.6082C36.3229 13.5839 38.0054 17.6241 38.0136 21.8402C38.0102 30.5834 30.8627 37.6973 22.0808 37.6973ZM30.8198 25.8216C30.3411 25.5827 27.9838 24.4295 27.5473 24.2705C27.1107 24.1115 26.7884 24.0316 26.4696 24.5094C26.1508 24.9872 25.2321 26.0563 24.9528 26.3785C24.6735 26.7008 24.3942 26.736 23.9155 26.4971C23.4369 26.2582 21.8926 25.7555 20.063 24.1312C18.639 22.8671 17.6782 21.3065 17.3989 20.8295C17.1196 20.3526 17.3688 20.0939 17.6086 19.8567C17.8243 19.6427 18.0873 19.2998 18.327 19.0214C18.5668 18.743 18.6467 18.5436 18.8057 18.2256C18.9647 17.9077 18.8856 17.6292 18.7662 17.3912C18.6467 17.1531 17.6885 14.8062 17.2898 13.8514C16.9005 12.9216 16.506 13.0479 16.2121 13.0333C15.9328 13.0195 15.6105 13.0161 15.2934 13.0161C15.051 13.0224 14.8125 13.0786 14.5928 13.1812C14.3731 13.2839 14.1769 13.4307 14.0164 13.6125C13.5773 14.0903 12.3398 15.2453 12.3398 17.5897C12.3398 19.9341 14.0585 22.2028 14.2957 22.5208C14.5329 22.8387 17.673 27.6538 22.4778 29.7189C23.37 30.101 24.2816 30.4361 25.2089 30.7227C26.3562 31.0853 27.4003 31.0346 28.2253 30.9117C29.1457 30.7751 31.0613 29.7584 31.4591 28.6447C31.857 27.5309 31.8579 26.577 31.7384 26.3785C31.619 26.18 31.2993 26.0597 30.8198 25.8216Z" fill="white"/>
</svg>
